<svg width="39" height="42" viewBox="0 0 39 42" fill="none" xmlns="http://www.w3.org/2000/svg">
<path d="M36.4239 1.43079L37.1395 1.19228L37.211 1.94311L37.4363 4.30877L37.439 4.33715V4.36564C37.439 4.36564 37.439 4.36565 37.439 4.36565C37.439 4.36574 37.439 4.36642 37.439 4.36778L37.4391 4.37423L37.4399 4.39685C37.4406 4.41603 37.4417 4.44057 37.4432 4.47135C37.4452 4.51304 37.4478 4.56225 37.4509 4.62032C37.4524 4.64886 37.454 4.67953 37.4557 4.71251C37.4661 4.91055 37.4795 5.17843 37.4913 5.50684C37.5151 6.16365 37.5329 7.06156 37.5089 8.13404C37.4611 10.2771 37.2467 13.125 36.5775 16.1454C35.2424 22.1712 32.0663 28.9988 24.6643 32.16L24.6625 32.1608C22.0474 33.2676 19.2369 33.8392 16.3972 33.8416C13.6045 33.8788 10.8455 33.2643 8.33764 32.0518C7.86938 34.4474 7.55537 36.8708 7.39767 39.3072L7.34095 40.1834L6.54526 39.8122L2.35367 37.8567L2.00896 37.6959L2.00734 37.3155C1.99586 34.6175 2.83387 31.9752 3.30733 30.4823C3.43477 30.0805 3.5358 29.7619 3.58673 29.548C3.62192 29.4002 3.66029 29.203 3.70356 28.9806C3.7135 28.9295 3.72369 28.8771 3.73417 28.8237C3.76704 28.656 3.80289 28.4769 3.84074 28.3113C2.61001 26.528 1.73444 24.5233 1.26302 22.4067C0.771526 20.2 0.729385 17.917 1.13909 15.6937C1.54555 13.3657 2.5276 11.1763 3.99595 9.3246C5.4637 7.47366 7.37077 6.01892 9.54377 5.09259C13.5759 3.2844 18.0454 2.68224 22.4123 3.35883C26.3673 3.89663 30.3934 3.49422 34.1637 2.18424L34.1637 2.18419L34.1709 2.18179L36.4239 1.43079ZM17.5082 17.9814L17.5073 17.982C16.3097 18.6951 15.2086 19.5589 14.2308 20.5522C13.2701 21.5393 12.4226 22.6308 11.7042 23.8061C10.352 26.0186 10.1499 26.3323 9.96594 26.6562C9.89595 26.7796 9.82859 26.9044 9.70146 27.1359C12.8384 29.2651 18.1718 29.5397 22.7294 27.6015C27.1017 25.7417 29.5454 21.9184 30.9146 17.8428C32.1539 14.1541 32.4896 10.3231 32.5907 7.72074C29.0807 8.50318 25.4593 8.66966 21.8886 8.21074C21.6852 8.19482 21.4848 8.17851 21.2867 8.16239C20.3039 8.08244 19.3792 8.00721 18.4394 8.00721L18.4368 8.0072C16.0477 7.99685 13.6859 8.51619 11.5214 9.52787L11.511 9.53277L11.5003 9.53726C10.0548 10.1461 8.78808 11.113 7.81957 12.3467C6.85107 13.5805 6.21264 15.0405 5.96446 16.5893L5.96449 16.5893L5.96341 16.5956C5.65999 18.3675 5.74193 20.1782 6.19683 21.906C6.35249 21.6312 6.52125 21.3639 6.76553 20.9769C6.82331 20.8854 6.88531 20.7871 6.95236 20.6805L6.95231 20.6805L6.95665 20.6738C8.96082 17.5798 12.2728 15.6541 15.4352 14.111L15.4351 14.1109L15.4429 14.1073C18.6133 12.6162 22.0933 11.9016 25.5947 12.0229L26.174 12.0429V12.6225V14.5V15.0203L25.6589 15.094C22.7773 15.506 20.0065 16.4875 17.5082 17.9814Z" fill="url(#paint0_radial_1_579)" stroke="url(#paint1_radial_1_579)" stroke-width="1.2"/>
<defs>
<radialGradient id="paint0_radial_1_579" cx="0" cy="0" r="1" gradientUnits="userSpaceOnUse" gradientTransform="translate(19.1903 20.6342) rotate(90) scale(18.6342 17.73)">
<stop stop-color="#3FA043"/>
<stop offset="1" stop-color="#94B902"/>
</radialGradient>
<radialGradient id="paint1_radial_1_579" cx="0" cy="0" r="1" gradientUnits="userSpaceOnUse" gradientTransform="translate(19.1903 20.6342) rotate(90) scale(18.6342 17.73)">
<stop stop-color="#3FA043"/>
<stop offset="1" stop-color="#94B902"/>
</radialGradient>
</defs>
</svg>
