<svg width="167" height="109" viewBox="0 0 167 109" fill="none" xmlns="http://www.w3.org/2000/svg">
<g filter="url(#filter0_b_12_18)">
<rect width="167" height="93" rx="24" fill="#20160E"/>
</g>
<path d="M25.0053 74V39.7812L27.4897 38.6094H36.3725C39.935 38.6094 42.8256 39.7422 45.0444 42.0078C47.1538 44.1484 48.2084 46.9219 48.2084 50.3281V62.2812C48.2084 65.6719 47.1538 68.4453 45.0444 70.6016C42.8256 72.8672 39.935 74 36.3725 74H25.0053ZM29.6928 69.7812H36.3725C38.6225 69.7812 40.4428 68.9766 41.8334 67.3672C42.9584 66.0703 43.5209 64.375 43.5209 62.2812V50.3281C43.5209 48.2344 42.9584 46.5391 41.8334 45.2422C40.4428 43.6328 38.6225 42.8281 36.3725 42.8281H29.6928V69.7812ZM52.3034 74.9375V39.7812L54.7878 38.6094H63.6706C67.2331 38.6094 70.1238 39.7422 72.3425 42.0078C74.4519 44.1641 75.5066 46.9375 75.5066 50.3281C75.5066 53.7344 74.4519 56.5078 72.3425 58.6484C71.0925 59.9141 69.6316 60.8281 67.9597 61.3906L76.0691 72.9922L71.9441 74.9375H71.7097L62.6863 62.0469H56.9909V72.8281L52.5378 74.9375H52.3034ZM56.9909 57.8281H63.6706C65.7175 57.8281 67.5378 57.0234 69.1316 55.4141C70.2566 54.2734 70.8191 52.5781 70.8191 50.3281C70.8191 48.2344 70.2566 46.5391 69.1316 45.2422C67.7409 43.6328 65.9206 42.8281 63.6706 42.8281H56.9909V57.8281ZM78.9922 74.9375V49.8594C78.9922 46.4844 80.0469 43.7109 82.1562 41.5391C84.375 39.2734 87.2656 38.1406 90.8281 38.1406C94.3281 38.1406 97.2188 39.2734 99.5 41.5391C101.609 43.6328 102.664 46.4062 102.664 49.8594V72.8281L98.2109 74.9375H97.9766V58.4375H83.6797V72.8281L79.2266 74.9375H78.9922ZM83.6797 54.1719H97.9766V49.8594C97.9766 47.7656 97.4141 46.0703 96.2891 44.7734C94.8984 43.1641 93.0781 42.3594 90.8281 42.3594C88.5781 42.3594 86.7578 43.1641 85.3672 44.7734C84.2422 46.0703 83.6797 47.7656 83.6797 49.8594V54.1719ZM106.759 74.9375V39.7812L109.243 38.6094H124.103V38.8438L122.204 42.875H111.447V54.1719H124.103V54.4062L122.204 58.4375H111.447V72.8281L106.993 74.9375H106.759ZM130.846 74.9375V42.875H120.815V42.6406L122.713 38.6094H145.565V38.8438L143.667 42.875H135.534V72.8281L131.081 74.9375H130.846Z" fill="url(#paint0_linear_12_18)"/>
<path d="M53.1805 30C52.9272 29.32 52.6872 28.6667 52.4605 28.04C52.2339 27.4133 52.0139 26.8 51.8005 26.2H45.0605C44.8339 26.8 44.6072 27.4133 44.3805 28.04C44.1539 28.6667 43.9205 29.32 43.6805 30H42.2605C42.7939 28.56 43.2939 27.22 43.7605 25.98C44.2272 24.7267 44.6805 23.5467 45.1205 22.44C45.5739 21.32 46.0205 20.2467 46.4605 19.22C46.9005 18.1933 47.3672 17.1667 47.8605 16.14H49.0605C49.5539 17.1667 50.0205 18.1933 50.4605 19.22C50.9005 20.2467 51.3405 21.32 51.7805 22.44C52.2339 23.5467 52.6939 24.7267 53.1605 25.98C53.6272 27.22 54.1339 28.56 54.6805 30H53.1805ZM48.4205 17.7C47.9139 18.8467 47.4205 20.0133 46.9405 21.2C46.4739 22.3867 45.9872 23.6667 45.4805 25.04H51.3805C50.8739 23.6667 50.3805 22.3867 49.9005 21.2C49.4205 20.0133 48.9272 18.8467 48.4205 17.7ZM63.1568 23.44H64.5168V29.62C64.2635 29.7267 63.7635 29.86 63.0168 30.02C62.2835 30.1933 61.3768 30.28 60.2968 30.28C59.3901 30.28 58.5501 30.12 57.7768 29.8C57.0035 29.48 56.3301 29.02 55.7568 28.42C55.1968 27.8067 54.7568 27.0533 54.4368 26.16C54.1168 25.2533 53.9568 24.22 53.9568 23.06C53.9568 21.9 54.1301 20.8733 54.4768 19.98C54.8235 19.0733 55.2901 18.32 55.8768 17.72C56.4768 17.1067 57.1701 16.64 57.9568 16.32C58.7435 16 59.5835 15.84 60.4768 15.84C61.5035 15.84 62.3501 15.9533 63.0168 16.18C63.6835 16.3933 64.1701 16.6 64.4768 16.8L64.0168 17.96C63.6435 17.6933 63.1368 17.48 62.4968 17.32C61.8568 17.1467 61.1635 17.06 60.4168 17.06C59.7235 17.06 59.0701 17.1867 58.4568 17.44C57.8435 17.6933 57.3101 18.0733 56.8568 18.58C56.4035 19.0867 56.0435 19.7133 55.7768 20.46C55.5235 21.2067 55.3968 22.0733 55.3968 23.06C55.3968 23.98 55.5035 24.8133 55.7168 25.56C55.9301 26.2933 56.2501 26.9267 56.6768 27.46C57.1168 27.98 57.6568 28.38 58.2968 28.66C58.9368 28.94 59.6768 29.08 60.5168 29.08C61.1968 29.08 61.7635 29.0467 62.2168 28.98C62.6835 28.9 62.9968 28.8267 63.1568 28.76V23.44ZM74.9209 20.3C74.9209 21.34 74.6475 22.16 74.1009 22.76C73.5542 23.36 72.8342 23.7933 71.9409 24.06C72.1542 24.3267 72.4275 24.6867 72.7609 25.14C73.1075 25.5933 73.4609 26.0933 73.8209 26.64C74.1809 27.1733 74.5342 27.7333 74.8809 28.32C75.2275 28.9067 75.5209 29.4667 75.7609 30H74.3009C74.0209 29.4667 73.7142 28.9333 73.3809 28.4C73.0609 27.8667 72.7275 27.3533 72.3809 26.86C72.0475 26.3533 71.7209 25.8867 71.4009 25.46C71.0809 25.0333 70.8009 24.66 70.5609 24.34C70.1342 24.38 69.7075 24.4 69.2809 24.4H67.0409V30H65.6809V16.4C66.1609 16.2667 66.7209 16.1733 67.3609 16.12C68.0142 16.0533 68.6142 16.02 69.1609 16.02C71.0675 16.02 72.5009 16.38 73.4609 17.1C74.4342 17.82 74.9209 18.8867 74.9209 20.3ZM69.3209 17.2C68.8142 17.2 68.3675 17.22 67.9809 17.26C67.6075 17.2867 67.2942 17.3133 67.0409 17.34V23.24H68.9209C69.5475 23.24 70.1409 23.2133 70.7009 23.16C71.2609 23.0933 71.7475 22.96 72.1609 22.76C72.5742 22.5467 72.9009 22.2467 73.1409 21.86C73.3809 21.4733 73.5009 20.9467 73.5009 20.28C73.5009 19.6667 73.3809 19.16 73.1409 18.76C72.9009 18.36 72.5875 18.0467 72.2009 17.82C71.8142 17.58 71.3675 17.42 70.8609 17.34C70.3675 17.2467 69.8542 17.2 69.3209 17.2ZM85.9305 30C85.6772 29.32 85.4372 28.6667 85.2105 28.04C84.9839 27.4133 84.7639 26.8 84.5505 26.2H77.8105C77.5839 26.8 77.3572 27.4133 77.1305 28.04C76.9039 28.6667 76.6705 29.32 76.4305 30H75.0105C75.5439 28.56 76.0439 27.22 76.5105 25.98C76.9772 24.7267 77.4305 23.5467 77.8705 22.44C78.3239 21.32 78.7705 20.2467 79.2105 19.22C79.6505 18.1933 80.1172 17.1667 80.6105 16.14H81.8105C82.3039 17.1667 82.7705 18.1933 83.2105 19.22C83.6505 20.2467 84.0905 21.32 84.5305 22.44C84.9839 23.5467 85.4439 24.7267 85.9105 25.98C86.3772 27.22 86.8839 28.56 87.4305 30H85.9305ZM81.1705 17.7C80.6639 18.8467 80.1705 20.0133 79.6905 21.2C79.2239 22.3867 78.7372 23.6667 78.2305 25.04H84.1305C83.6239 23.6667 83.1305 22.3867 82.6505 21.2C82.1705 20.0133 81.6772 18.8467 81.1705 17.7ZM96.663 20.3C96.663 21.34 96.3897 22.16 95.843 22.76C95.2964 23.36 94.5764 23.7933 93.683 24.06C93.8964 24.3267 94.1697 24.6867 94.503 25.14C94.8497 25.5933 95.203 26.0933 95.563 26.64C95.923 27.1733 96.2764 27.7333 96.623 28.32C96.9697 28.9067 97.263 29.4667 97.503 30H96.043C95.763 29.4667 95.4564 28.9333 95.123 28.4C94.803 27.8667 94.4697 27.3533 94.123 26.86C93.7897 26.3533 93.463 25.8867 93.143 25.46C92.823 25.0333 92.543 24.66 92.303 24.34C91.8764 24.38 91.4497 24.4 91.023 24.4H88.783V30H87.423V16.4C87.903 16.2667 88.463 16.1733 89.103 16.12C89.7564 16.0533 90.3564 16.02 90.903 16.02C92.8097 16.02 94.243 16.38 95.203 17.1C96.1764 17.82 96.663 18.8867 96.663 20.3ZM91.063 17.2C90.5564 17.2 90.1097 17.22 89.723 17.26C89.3497 17.2867 89.0364 17.3133 88.783 17.34V23.24H90.663C91.2897 23.24 91.883 23.2133 92.443 23.16C93.003 23.0933 93.4897 22.96 93.903 22.76C94.3164 22.5467 94.643 22.2467 94.883 21.86C95.123 21.4733 95.243 20.9467 95.243 20.28C95.243 19.6667 95.123 19.16 94.883 18.76C94.643 18.36 94.3297 18.0467 93.943 17.82C93.5564 17.58 93.1097 17.42 92.603 17.34C92.1097 17.2467 91.5964 17.2 91.063 17.2ZM97.7863 16.14H99.1463V30H97.7863V16.14ZM110.067 30C109.814 29.32 109.574 28.6667 109.347 28.04C109.121 27.4133 108.901 26.8 108.687 26.2H101.947C101.721 26.8 101.494 27.4133 101.267 28.04C101.041 28.6667 100.807 29.32 100.567 30H99.1473C99.6806 28.56 100.181 27.22 100.647 25.98C101.114 24.7267 101.567 23.5467 102.007 22.44C102.461 21.32 102.907 20.2467 103.347 19.22C103.787 18.1933 104.254 17.1667 104.747 16.14H105.947C106.441 17.1667 106.907 18.1933 107.347 19.22C107.787 20.2467 108.227 21.32 108.667 22.44C109.121 23.5467 109.581 24.7267 110.047 25.98C110.514 27.22 111.021 28.56 111.567 30H110.067ZM105.307 17.7C104.801 18.8467 104.307 20.0133 103.827 21.2C103.361 22.3867 102.874 23.6667 102.367 25.04H108.267C107.761 23.6667 107.267 22.3867 106.787 21.2C106.307 20.0133 105.814 18.8467 105.307 17.7ZM121 30C120.746 29.5333 120.42 28.9867 120.02 28.36C119.633 27.7333 119.206 27.0667 118.74 26.36C118.273 25.64 117.78 24.9067 117.26 24.16C116.74 23.4 116.22 22.6667 115.7 21.96C115.193 21.24 114.693 20.5667 114.2 19.94C113.72 19.3133 113.286 18.7733 112.9 18.32V30H111.56V16.14H112.64C113.32 16.9 114.046 17.78 114.82 18.78C115.606 19.7667 116.373 20.78 117.12 21.82C117.866 22.8467 118.56 23.8533 119.2 24.84C119.853 25.8267 120.386 26.6867 120.8 27.42V16.14H122.14V30H121Z" fill="white"/>
<g filter="url(#filter1_b_12_18)">
<rect x="54" y="83.2759" width="60" height="24.8276" rx="9.72414" fill="#20160E"/>
<rect x="54.4052" y="83.6811" width="59.1897" height="24.0172" rx="9.31897" stroke="#B82403" stroke-width="0.810345"/>
</g>
<path d="M63.6928 97.44C63.6928 96.9867 63.7562 96.5934 63.8828 96.26C64.0162 95.92 64.1862 95.6367 64.3928 95.41C64.6062 95.1834 64.8462 95.0167 65.1128 94.91C65.3862 94.7967 65.6662 94.74 65.9528 94.74C66.5862 94.74 67.0895 94.9467 67.4628 95.36C67.8428 95.7734 68.0328 96.41 68.0328 97.27C68.0328 97.3234 68.0295 97.3767 68.0228 97.43C68.0228 97.4834 68.0195 97.5334 68.0128 97.58H64.3828C64.4028 98.2134 64.5595 98.7 64.8528 99.04C65.1462 99.38 65.6128 99.55 66.2528 99.55C66.6062 99.55 66.8862 99.5167 67.0928 99.45C67.2995 99.3834 67.4495 99.3267 67.5428 99.28L67.6628 99.84C67.5695 99.8934 67.3928 99.9567 67.1328 100.03C66.8795 100.103 66.5795 100.14 66.2328 100.14C65.7795 100.14 65.3928 100.073 65.0728 99.94C64.7528 99.8067 64.4895 99.62 64.2828 99.38C64.0762 99.14 63.9262 98.8567 63.8328 98.53C63.7395 98.1967 63.6928 97.8334 63.6928 97.44ZM67.3628 97.03C67.3495 96.49 67.2228 96.07 66.9828 95.77C66.7428 95.47 66.4028 95.32 65.9628 95.32C65.7295 95.32 65.5195 95.3667 65.3328 95.46C65.1528 95.5534 64.9928 95.68 64.8528 95.84C64.7195 95.9934 64.6128 96.1734 64.5328 96.38C64.4595 96.5867 64.4162 96.8034 64.4028 97.03H67.3628ZM69.4813 95.04C69.6747 94.9867 69.9247 94.9267 70.2313 94.86C70.5447 94.7934 70.948 94.76 71.4413 94.76C72.0947 94.76 72.568 94.95 72.8613 95.33C72.8947 95.3034 72.958 95.26 73.0513 95.2C73.1513 95.1334 73.2747 95.0667 73.4213 95C73.568 94.9334 73.738 94.8767 73.9313 94.83C74.1313 94.7834 74.3513 94.76 74.5913 94.76C74.9847 94.76 75.3013 94.82 75.5413 94.94C75.788 95.0534 75.978 95.2167 76.1113 95.43C76.2447 95.6367 76.3347 95.8867 76.3813 96.18C76.428 96.4734 76.4513 96.7934 76.4513 97.14V100.03H75.8013V97.35C75.8013 97.01 75.7847 96.7167 75.7513 96.47C75.7247 96.2167 75.6647 96.01 75.5713 95.85C75.4847 95.6834 75.358 95.56 75.1913 95.48C75.0247 95.3934 74.808 95.35 74.5413 95.35C74.3413 95.35 74.158 95.37 73.9913 95.41C73.8313 95.4434 73.6913 95.4867 73.5713 95.54C73.4513 95.5934 73.3513 95.6467 73.2713 95.7C73.198 95.7534 73.1447 95.7934 73.1113 95.82C73.1713 95.9934 73.2147 96.19 73.2413 96.41C73.2747 96.6234 73.2913 96.85 73.2913 97.09V100.03H72.6413V97.35C72.6413 97.01 72.6247 96.7167 72.5913 96.47C72.5647 96.2167 72.5047 96.01 72.4113 95.85C72.318 95.6834 72.1847 95.56 72.0113 95.48C71.8447 95.3934 71.6213 95.35 71.3413 95.35C71.028 95.35 70.7613 95.3667 70.5413 95.4C70.328 95.4334 70.1913 95.4634 70.1313 95.49V100.03H69.4813V95.04ZM81.0395 95.17C81.1529 95.0834 81.3329 94.9934 81.5795 94.9C81.8329 94.8 82.1295 94.75 82.4695 94.75C82.8429 94.75 83.1729 94.8167 83.4595 94.95C83.7529 95.0834 83.9995 95.27 84.1995 95.51C84.3995 95.75 84.5495 96.0367 84.6495 96.37C84.7562 96.6967 84.8095 97.0567 84.8095 97.45C84.8095 97.87 84.7462 98.2467 84.6195 98.58C84.4995 98.9134 84.3262 99.1967 84.0995 99.43C83.8795 99.6634 83.6129 99.8434 83.2995 99.97C82.9929 100.09 82.6495 100.15 82.2695 100.15C81.8095 100.15 81.4295 100.12 81.1295 100.06C80.8295 100 80.5829 99.9367 80.3895 99.87V92.39L81.0395 92.27V95.17ZM81.0395 99.42C81.1395 99.4534 81.2862 99.4867 81.4795 99.52C81.6795 99.5467 81.9395 99.56 82.2595 99.56C82.8195 99.56 83.2695 99.38 83.6095 99.02C83.9495 98.6534 84.1195 98.13 84.1195 97.45C84.1195 97.1634 84.0895 96.8934 84.0295 96.64C83.9695 96.38 83.8729 96.1567 83.7395 95.97C83.6062 95.7767 83.4295 95.6234 83.2095 95.51C82.9962 95.3967 82.7295 95.34 82.4095 95.34C82.2562 95.34 82.1095 95.3567 81.9695 95.39C81.8295 95.4167 81.6995 95.4534 81.5795 95.5C81.4595 95.5467 81.3529 95.5967 81.2595 95.65C81.1729 95.7034 81.0995 95.7534 81.0395 95.8V99.42ZM87.9796 94.76C88.193 94.76 88.393 94.7767 88.5796 94.81C88.773 94.8434 88.9063 94.8767 88.9796 94.91L88.8496 95.47C88.7963 95.4434 88.6863 95.4167 88.5196 95.39C88.3596 95.3567 88.1463 95.34 87.8796 95.34C87.5996 95.34 87.373 95.36 87.1996 95.4C87.033 95.44 86.923 95.4734 86.8696 95.5V100.03H86.2196V95.1C86.3863 95.0267 86.6163 94.9534 86.9096 94.88C87.203 94.8 87.5596 94.76 87.9796 94.76ZM89.6499 97.44C89.6499 96.9867 89.7132 96.5934 89.8399 96.26C89.9732 95.92 90.1432 95.6367 90.3499 95.41C90.5632 95.1834 90.8032 95.0167 91.0699 94.91C91.3432 94.7967 91.6232 94.74 91.9099 94.74C92.5432 94.74 93.0465 94.9467 93.4199 95.36C93.7999 95.7734 93.9899 96.41 93.9899 97.27C93.9899 97.3234 93.9865 97.3767 93.9799 97.43C93.9799 97.4834 93.9765 97.5334 93.9699 97.58H90.3399C90.3599 98.2134 90.5165 98.7 90.8099 99.04C91.1032 99.38 91.5699 99.55 92.2099 99.55C92.5632 99.55 92.8432 99.5167 93.0499 99.45C93.2565 99.3834 93.4065 99.3267 93.4999 99.28L93.6199 99.84C93.5265 99.8934 93.3499 99.9567 93.0899 100.03C92.8365 100.103 92.5365 100.14 92.1899 100.14C91.7365 100.14 91.3499 100.073 91.0299 99.94C90.7099 99.8067 90.4465 99.62 90.2399 99.38C90.0332 99.14 89.8832 98.8567 89.7899 98.53C89.6965 98.1967 89.6499 97.8334 89.6499 97.44ZM93.3199 97.03C93.3065 96.49 93.1799 96.07 92.9399 95.77C92.6999 95.47 92.3599 95.32 91.9199 95.32C91.6865 95.32 91.4765 95.3667 91.2899 95.46C91.1099 95.5534 90.9499 95.68 90.8099 95.84C90.6765 95.9934 90.5699 96.1734 90.4899 96.38C90.4165 96.5867 90.3732 96.8034 90.3599 97.03H93.3199ZM96.9984 99.33C97.1384 99.0434 97.2817 98.7167 97.4284 98.35C97.575 97.9767 97.715 97.5934 97.8484 97.2C97.9884 96.8 98.115 96.4 98.2284 96C98.3484 95.5934 98.4484 95.2134 98.5284 94.86H99.1784C99.0584 95.3334 98.925 95.8 98.7784 96.26C98.6317 96.72 98.475 97.17 98.3084 97.61C98.1484 98.05 97.9784 98.4734 97.7984 98.88C97.625 99.2867 97.455 99.67 97.2884 100.03H96.6684C96.495 99.67 96.3217 99.2867 96.1484 98.88C95.975 98.4734 95.805 98.05 95.6384 97.61C95.4784 97.17 95.325 96.72 95.1784 96.26C95.0317 95.8 94.8984 95.3334 94.7784 94.86H95.4684C95.5484 95.2134 95.645 95.5934 95.7584 96C95.8784 96.4 96.005 96.8 96.1384 97.2C96.2784 97.5934 96.4217 97.9767 96.5684 98.35C96.715 98.7167 96.8584 99.0434 96.9984 99.33ZM99.9331 97.44C99.9331 96.9867 99.9964 96.5934 100.123 96.26C100.256 95.92 100.426 95.6367 100.633 95.41C100.846 95.1834 101.086 95.0167 101.353 94.91C101.626 94.7967 101.906 94.74 102.193 94.74C102.826 94.74 103.33 94.9467 103.703 95.36C104.083 95.7734 104.273 96.41 104.273 97.27C104.273 97.3234 104.27 97.3767 104.263 97.43C104.263 97.4834 104.26 97.5334 104.253 97.58H100.623C100.643 98.2134 100.8 98.7 101.093 99.04C101.386 99.38 101.853 99.55 102.493 99.55C102.846 99.55 103.126 99.5167 103.333 99.45C103.54 99.3834 103.69 99.3267 103.783 99.28L103.903 99.84C103.81 99.8934 103.633 99.9567 103.373 100.03C103.12 100.103 102.82 100.14 102.473 100.14C102.02 100.14 101.633 100.073 101.313 99.94C100.993 99.8067 100.73 99.62 100.523 99.38C100.316 99.14 100.166 98.8567 100.073 98.53C99.9797 98.1967 99.9331 97.8334 99.9331 97.44ZM103.603 97.03C103.59 96.49 103.463 96.07 103.223 95.77C102.983 95.47 102.643 95.32 102.203 95.32C101.97 95.32 101.76 95.3667 101.573 95.46C101.393 95.5534 101.233 95.68 101.093 95.84C100.96 95.9934 100.853 96.1734 100.773 96.38C100.7 96.5867 100.656 96.8034 100.643 97.03H103.603Z" fill="#B82403"/>
<defs>
<filter id="filter0_b_12_18" x="-4" y="-4" width="175" height="101" filterUnits="userSpaceOnUse" color-interpolation-filters="sRGB">
<feFlood flood-opacity="0" result="BackgroundImageFix"/>
<feGaussianBlur in="BackgroundImage" stdDeviation="2"/>
<feComposite in2="SourceAlpha" operator="in" result="effect1_backgroundBlur_12_18"/>
<feBlend mode="normal" in="SourceGraphic" in2="effect1_backgroundBlur_12_18" result="shape"/>
</filter>
<filter id="filter1_b_12_18" x="50.7586" y="80.0345" width="66.4828" height="31.3104" filterUnits="userSpaceOnUse" color-interpolation-filters="sRGB">
<feFlood flood-opacity="0" result="BackgroundImageFix"/>
<feGaussianBlur in="BackgroundImage" stdDeviation="1.62069"/>
<feComposite in2="SourceAlpha" operator="in" result="effect1_backgroundBlur_12_18"/>
<feBlend mode="normal" in="SourceGraphic" in2="effect1_backgroundBlur_12_18" result="shape"/>
</filter>
<linearGradient id="paint0_linear_12_18" x1="83" y1="44" x2="83" y2="74" gradientUnits="userSpaceOnUse">
<stop stop-color="#A0623F"/>
<stop offset="1" stop-color="#B92302"/>
</linearGradient>
</defs>
</svg>
