<svg width="167" height="108" viewBox="0 0 167 108" fill="none" xmlns="http://www.w3.org/2000/svg">
<g filter="url(#filter0_b_12_10)">
<rect width="167" height="93" rx="24" fill="#1D200E"/>
</g>
<path d="M32.5834 57.8281H39.2631C41.31 57.8281 43.1303 57.0234 44.7241 55.4141C45.8491 54.2734 46.4116 52.5781 46.4116 50.3281C46.4116 48.2344 45.8491 46.5391 44.7241 45.2422C43.3334 43.6328 41.5131 42.8281 39.2631 42.8281H32.5834V57.8281ZM27.8959 74.9375V39.7812L30.3803 38.6094H39.2631C42.8256 38.6094 45.7163 39.7422 47.935 42.0078C50.0444 44.1641 51.0991 46.9375 51.0991 50.3281C51.0991 53.7344 50.0444 56.5078 47.935 58.6484C45.7006 60.9141 42.81 62.0469 39.2631 62.0469H32.5834V72.8281L28.1303 74.9375H27.8959ZM54.0222 74V39.7812L58.4753 37.6719H58.7097V69.7344H74.7644V69.9688L72.8659 74H54.0222ZM71.4766 74.9375V49.8594C71.4766 46.4844 72.5312 43.7109 74.6406 41.5391C76.8594 39.2734 79.75 38.1406 83.3125 38.1406C86.8125 38.1406 89.7031 39.2734 91.9844 41.5391C94.0938 43.6328 95.1484 46.4062 95.1484 49.8594V72.8281L90.6953 74.9375H90.4609V58.4375H76.1641V72.8281L71.7109 74.9375H71.4766ZM76.1641 54.1719H90.4609V49.8594C90.4609 47.7656 89.8984 46.0703 88.7734 44.7734C87.3828 43.1641 85.5625 42.3594 83.3125 42.3594C81.0625 42.3594 79.2422 43.1641 77.8516 44.7734C76.7266 46.0703 76.1641 47.7656 76.1641 49.8594V54.1719ZM99.2434 74.9375V49.8594C99.2434 46.4844 100.298 43.7109 102.408 41.5391C104.626 39.2734 107.517 38.1406 111.079 38.1406C114.595 38.1406 117.486 39.2734 119.751 41.5391C121.861 43.6328 122.915 46.4062 122.915 49.8594V72.8281L118.462 74.9375H118.228V49.8594C118.228 47.7656 117.665 46.0703 116.54 44.7734C115.15 43.1641 113.329 42.3594 111.079 42.3594C108.829 42.3594 107.009 43.1641 105.618 44.7734C104.493 46.0703 103.931 47.7656 103.931 49.8594V72.8281L99.4778 74.9375H99.2434ZM128.956 74.9375V42.875H118.924V42.6406L120.823 38.6094H143.674V38.8438L141.776 42.875H133.643V72.8281L129.19 74.9375H128.956Z" fill="url(#paint0_linear_12_10)"/>
<path d="M53.1805 30C52.9272 29.32 52.6872 28.6667 52.4605 28.04C52.2339 27.4133 52.0139 26.8 51.8005 26.2H45.0605C44.8339 26.8 44.6072 27.4133 44.3805 28.04C44.1539 28.6667 43.9205 29.32 43.6805 30H42.2605C42.7939 28.56 43.2939 27.22 43.7605 25.98C44.2272 24.7267 44.6805 23.5467 45.1205 22.44C45.5739 21.32 46.0205 20.2467 46.4605 19.22C46.9005 18.1933 47.3672 17.1667 47.8605 16.14H49.0605C49.5539 17.1667 50.0205 18.1933 50.4605 19.22C50.9005 20.2467 51.3405 21.32 51.7805 22.44C52.2339 23.5467 52.6939 24.7267 53.1605 25.98C53.6272 27.22 54.1339 28.56 54.6805 30H53.1805ZM48.4205 17.7C47.9139 18.8467 47.4205 20.0133 46.9405 21.2C46.4739 22.3867 45.9872 23.6667 45.4805 25.04H51.3805C50.8739 23.6667 50.3805 22.3867 49.9005 21.2C49.4205 20.0133 48.9272 18.8467 48.4205 17.7ZM63.1568 23.44H64.5168V29.62C64.2635 29.7267 63.7635 29.86 63.0168 30.02C62.2835 30.1933 61.3768 30.28 60.2968 30.28C59.3901 30.28 58.5501 30.12 57.7768 29.8C57.0035 29.48 56.3301 29.02 55.7568 28.42C55.1968 27.8067 54.7568 27.0533 54.4368 26.16C54.1168 25.2533 53.9568 24.22 53.9568 23.06C53.9568 21.9 54.1301 20.8733 54.4768 19.98C54.8235 19.0733 55.2901 18.32 55.8768 17.72C56.4768 17.1067 57.1701 16.64 57.9568 16.32C58.7435 16 59.5835 15.84 60.4768 15.84C61.5035 15.84 62.3501 15.9533 63.0168 16.18C63.6835 16.3933 64.1701 16.6 64.4768 16.8L64.0168 17.96C63.6435 17.6933 63.1368 17.48 62.4968 17.32C61.8568 17.1467 61.1635 17.06 60.4168 17.06C59.7235 17.06 59.0701 17.1867 58.4568 17.44C57.8435 17.6933 57.3101 18.0733 56.8568 18.58C56.4035 19.0867 56.0435 19.7133 55.7768 20.46C55.5235 21.2067 55.3968 22.0733 55.3968 23.06C55.3968 23.98 55.5035 24.8133 55.7168 25.56C55.9301 26.2933 56.2501 26.9267 56.6768 27.46C57.1168 27.98 57.6568 28.38 58.2968 28.66C58.9368 28.94 59.6768 29.08 60.5168 29.08C61.1968 29.08 61.7635 29.0467 62.2168 28.98C62.6835 28.9 62.9968 28.8267 63.1568 28.76V23.44ZM74.9209 20.3C74.9209 21.34 74.6475 22.16 74.1009 22.76C73.5542 23.36 72.8342 23.7933 71.9409 24.06C72.1542 24.3267 72.4275 24.6867 72.7609 25.14C73.1075 25.5933 73.4609 26.0933 73.8209 26.64C74.1809 27.1733 74.5342 27.7333 74.8809 28.32C75.2275 28.9067 75.5209 29.4667 75.7609 30H74.3009C74.0209 29.4667 73.7142 28.9333 73.3809 28.4C73.0609 27.8667 72.7275 27.3533 72.3809 26.86C72.0475 26.3533 71.7209 25.8867 71.4009 25.46C71.0809 25.0333 70.8009 24.66 70.5609 24.34C70.1342 24.38 69.7075 24.4 69.2809 24.4H67.0409V30H65.6809V16.4C66.1609 16.2667 66.7209 16.1733 67.3609 16.12C68.0142 16.0533 68.6142 16.02 69.1609 16.02C71.0675 16.02 72.5009 16.38 73.4609 17.1C74.4342 17.82 74.9209 18.8867 74.9209 20.3ZM69.3209 17.2C68.8142 17.2 68.3675 17.22 67.9809 17.26C67.6075 17.2867 67.2942 17.3133 67.0409 17.34V23.24H68.9209C69.5475 23.24 70.1409 23.2133 70.7009 23.16C71.2609 23.0933 71.7475 22.96 72.1609 22.76C72.5742 22.5467 72.9009 22.2467 73.1409 21.86C73.3809 21.4733 73.5009 20.9467 73.5009 20.28C73.5009 19.6667 73.3809 19.16 73.1409 18.76C72.9009 18.36 72.5875 18.0467 72.2009 17.82C71.8142 17.58 71.3675 17.42 70.8609 17.34C70.3675 17.2467 69.8542 17.2 69.3209 17.2ZM85.9305 30C85.6772 29.32 85.4372 28.6667 85.2105 28.04C84.9839 27.4133 84.7639 26.8 84.5505 26.2H77.8105C77.5839 26.8 77.3572 27.4133 77.1305 28.04C76.9039 28.6667 76.6705 29.32 76.4305 30H75.0105C75.5439 28.56 76.0439 27.22 76.5105 25.98C76.9772 24.7267 77.4305 23.5467 77.8705 22.44C78.3239 21.32 78.7705 20.2467 79.2105 19.22C79.6505 18.1933 80.1172 17.1667 80.6105 16.14H81.8105C82.3039 17.1667 82.7705 18.1933 83.2105 19.22C83.6505 20.2467 84.0905 21.32 84.5305 22.44C84.9839 23.5467 85.4439 24.7267 85.9105 25.98C86.3772 27.22 86.8839 28.56 87.4305 30H85.9305ZM81.1705 17.7C80.6639 18.8467 80.1705 20.0133 79.6905 21.2C79.2239 22.3867 78.7372 23.6667 78.2305 25.04H84.1305C83.6239 23.6667 83.1305 22.3867 82.6505 21.2C82.1705 20.0133 81.6772 18.8467 81.1705 17.7ZM96.663 20.3C96.663 21.34 96.3897 22.16 95.843 22.76C95.2964 23.36 94.5764 23.7933 93.683 24.06C93.8964 24.3267 94.1697 24.6867 94.503 25.14C94.8497 25.5933 95.203 26.0933 95.563 26.64C95.923 27.1733 96.2764 27.7333 96.623 28.32C96.9697 28.9067 97.263 29.4667 97.503 30H96.043C95.763 29.4667 95.4564 28.9333 95.123 28.4C94.803 27.8667 94.4697 27.3533 94.123 26.86C93.7897 26.3533 93.463 25.8867 93.143 25.46C92.823 25.0333 92.543 24.66 92.303 24.34C91.8764 24.38 91.4497 24.4 91.023 24.4H88.783V30H87.423V16.4C87.903 16.2667 88.463 16.1733 89.103 16.12C89.7564 16.0533 90.3564 16.02 90.903 16.02C92.8097 16.02 94.243 16.38 95.203 17.1C96.1764 17.82 96.663 18.8867 96.663 20.3ZM91.063 17.2C90.5564 17.2 90.1097 17.22 89.723 17.26C89.3497 17.2867 89.0364 17.3133 88.783 17.34V23.24H90.663C91.2897 23.24 91.883 23.2133 92.443 23.16C93.003 23.0933 93.4897 22.96 93.903 22.76C94.3164 22.5467 94.643 22.2467 94.883 21.86C95.123 21.4733 95.243 20.9467 95.243 20.28C95.243 19.6667 95.123 19.16 94.883 18.76C94.643 18.36 94.3297 18.0467 93.943 17.82C93.5564 17.58 93.1097 17.42 92.603 17.34C92.1097 17.2467 91.5964 17.2 91.063 17.2ZM97.7863 16.14H99.1463V30H97.7863V16.14ZM110.067 30C109.814 29.32 109.574 28.6667 109.347 28.04C109.121 27.4133 108.901 26.8 108.687 26.2H101.947C101.721 26.8 101.494 27.4133 101.267 28.04C101.041 28.6667 100.807 29.32 100.567 30H99.1473C99.6806 28.56 100.181 27.22 100.647 25.98C101.114 24.7267 101.567 23.5467 102.007 22.44C102.461 21.32 102.907 20.2467 103.347 19.22C103.787 18.1933 104.254 17.1667 104.747 16.14H105.947C106.441 17.1667 106.907 18.1933 107.347 19.22C107.787 20.2467 108.227 21.32 108.667 22.44C109.121 23.5467 109.581 24.7267 110.047 25.98C110.514 27.22 111.021 28.56 111.567 30H110.067ZM105.307 17.7C104.801 18.8467 104.307 20.0133 103.827 21.2C103.361 22.3867 102.874 23.6667 102.367 25.04H108.267C107.761 23.6667 107.267 22.3867 106.787 21.2C106.307 20.0133 105.814 18.8467 105.307 17.7ZM121 30C120.746 29.5333 120.42 28.9867 120.02 28.36C119.633 27.7333 119.206 27.0667 118.74 26.36C118.273 25.64 117.78 24.9067 117.26 24.16C116.74 23.4 116.22 22.6667 115.7 21.96C115.193 21.24 114.693 20.5667 114.2 19.94C113.72 19.3133 113.286 18.7733 112.9 18.32V30H111.56V16.14H112.64C113.32 16.9 114.046 17.78 114.82 18.78C115.606 19.7667 116.373 20.78 117.12 21.82C117.866 22.8467 118.56 23.8533 119.2 24.84C119.853 25.8267 120.386 26.6867 120.8 27.42V16.14H122.14V30H121Z" fill="white"/>
<g filter="url(#filter1_b_12_10)">
<rect x="53" y="83" width="60" height="24.8276" rx="9.72414" fill="#1D200E"/>
<rect x="53.4052" y="83.4052" width="59.1897" height="24.0172" rx="9.31897" stroke="#94B801" stroke-width="0.810345"/>
</g>
<path d="M62.6928 97.1642C62.6928 96.7108 62.7562 96.3175 62.8828 95.9842C63.0162 95.6442 63.1862 95.3608 63.3928 95.1342C63.6062 94.9075 63.8462 94.7408 64.1128 94.6342C64.3862 94.5208 64.6662 94.4641 64.9528 94.4641C65.5862 94.4641 66.0895 94.6708 66.4628 95.0842C66.8428 95.4975 67.0328 96.1342 67.0328 96.9942C67.0328 97.0475 67.0295 97.1008 67.0228 97.1542C67.0228 97.2075 67.0195 97.2575 67.0128 97.3042H63.3828C63.4028 97.9375 63.5595 98.4242 63.8528 98.7642C64.1462 99.1042 64.6128 99.2742 65.2528 99.2742C65.6062 99.2742 65.8862 99.2408 66.0928 99.1742C66.2995 99.1075 66.4495 99.0508 66.5428 99.0042L66.6628 99.5642C66.5695 99.6175 66.3928 99.6808 66.1328 99.7542C65.8795 99.8275 65.5795 99.8642 65.2328 99.8642C64.7795 99.8642 64.3928 99.7975 64.0728 99.6642C63.7528 99.5308 63.4895 99.3442 63.2828 99.1042C63.0762 98.8642 62.9262 98.5808 62.8328 98.2542C62.7395 97.9208 62.6928 97.5575 62.6928 97.1642ZM66.3628 96.7542C66.3495 96.2142 66.2228 95.7942 65.9828 95.4942C65.7428 95.1942 65.4028 95.0442 64.9628 95.0442C64.7295 95.0442 64.5195 95.0908 64.3328 95.1842C64.1528 95.2775 63.9928 95.4042 63.8528 95.5642C63.7195 95.7175 63.6128 95.8975 63.5328 96.1042C63.4595 96.3108 63.4162 96.5275 63.4028 96.7542H66.3628ZM68.4813 94.7642C68.6747 94.7108 68.9247 94.6508 69.2313 94.5842C69.5447 94.5175 69.948 94.4842 70.4413 94.4842C71.0947 94.4842 71.568 94.6742 71.8613 95.0542C71.8947 95.0275 71.958 94.9842 72.0513 94.9242C72.1513 94.8575 72.2747 94.7908 72.4213 94.7242C72.568 94.6575 72.738 94.6008 72.9313 94.5541C73.1313 94.5075 73.3513 94.4842 73.5913 94.4842C73.9847 94.4842 74.3013 94.5442 74.5413 94.6642C74.788 94.7775 74.978 94.9408 75.1113 95.1542C75.2447 95.3608 75.3347 95.6108 75.3813 95.9042C75.428 96.1975 75.4513 96.5175 75.4513 96.8642V99.7542H74.8013V97.0742C74.8013 96.7342 74.7847 96.4408 74.7513 96.1942C74.7247 95.9408 74.6647 95.7342 74.5713 95.5742C74.4847 95.4075 74.358 95.2842 74.1913 95.2042C74.0247 95.1175 73.808 95.0742 73.5413 95.0742C73.3413 95.0742 73.158 95.0942 72.9913 95.1342C72.8313 95.1675 72.6913 95.2108 72.5713 95.2642C72.4513 95.3175 72.3513 95.3708 72.2713 95.4242C72.198 95.4775 72.1447 95.5175 72.1113 95.5442C72.1713 95.7175 72.2147 95.9142 72.2413 96.1342C72.2747 96.3475 72.2913 96.5742 72.2913 96.8142V99.7542H71.6413V97.0742C71.6413 96.7342 71.6247 96.4408 71.5913 96.1942C71.5647 95.9408 71.5047 95.7342 71.4113 95.5742C71.318 95.4075 71.1847 95.2842 71.0113 95.2042C70.8447 95.1175 70.6213 95.0742 70.3413 95.0742C70.028 95.0742 69.7613 95.0908 69.5413 95.1242C69.328 95.1575 69.1913 95.1875 69.1313 95.2142V99.7542H68.4813V94.7642ZM80.0395 94.8942C80.1529 94.8075 80.3329 94.7175 80.5795 94.6242C80.8329 94.5242 81.1295 94.4742 81.4695 94.4742C81.8429 94.4742 82.1729 94.5408 82.4595 94.6742C82.7529 94.8075 82.9995 94.9942 83.1995 95.2342C83.3995 95.4742 83.5495 95.7608 83.6495 96.0942C83.7562 96.4208 83.8095 96.7808 83.8095 97.1742C83.8095 97.5942 83.7462 97.9708 83.6195 98.3042C83.4995 98.6375 83.3262 98.9208 83.0995 99.1542C82.8795 99.3875 82.6129 99.5675 82.2995 99.6942C81.9929 99.8142 81.6495 99.8742 81.2695 99.8742C80.8095 99.8742 80.4295 99.8442 80.1295 99.7842C79.8295 99.7242 79.5829 99.6608 79.3895 99.5942V92.1141L80.0395 91.9942V94.8942ZM80.0395 99.1442C80.1395 99.1775 80.2862 99.2108 80.4795 99.2442C80.6795 99.2708 80.9395 99.2842 81.2595 99.2842C81.8195 99.2842 82.2695 99.1042 82.6095 98.7442C82.9495 98.3775 83.1195 97.8542 83.1195 97.1742C83.1195 96.8875 83.0895 96.6175 83.0295 96.3642C82.9695 96.1042 82.8729 95.8808 82.7395 95.6942C82.6062 95.5008 82.4295 95.3475 82.2095 95.2342C81.9962 95.1208 81.7295 95.0642 81.4095 95.0642C81.2562 95.0642 81.1095 95.0808 80.9695 95.1142C80.8295 95.1408 80.6995 95.1775 80.5795 95.2242C80.4595 95.2708 80.3529 95.3208 80.2595 95.3742C80.1729 95.4275 80.0995 95.4775 80.0395 95.5242V99.1442ZM86.9796 94.4842C87.193 94.4842 87.393 94.5008 87.5796 94.5342C87.773 94.5675 87.9063 94.6008 87.9796 94.6342L87.8496 95.1942C87.7963 95.1675 87.6863 95.1408 87.5196 95.1142C87.3596 95.0808 87.1463 95.0642 86.8796 95.0642C86.5996 95.0642 86.373 95.0842 86.1996 95.1242C86.033 95.1642 85.923 95.1975 85.8696 95.2242V99.7542H85.2196V94.8242C85.3863 94.7508 85.6163 94.6775 85.9096 94.6041C86.203 94.5242 86.5596 94.4842 86.9796 94.4842ZM88.6499 97.1642C88.6499 96.7108 88.7132 96.3175 88.8399 95.9842C88.9732 95.6442 89.1432 95.3608 89.3499 95.1342C89.5632 94.9075 89.8032 94.7408 90.0699 94.6342C90.3432 94.5208 90.6232 94.4641 90.9099 94.4641C91.5432 94.4641 92.0465 94.6708 92.4199 95.0842C92.7999 95.4975 92.9899 96.1342 92.9899 96.9942C92.9899 97.0475 92.9865 97.1008 92.9799 97.1542C92.9799 97.2075 92.9765 97.2575 92.9699 97.3042H89.3399C89.3599 97.9375 89.5165 98.4242 89.8099 98.7642C90.1032 99.1042 90.5699 99.2742 91.2099 99.2742C91.5632 99.2742 91.8432 99.2408 92.0499 99.1742C92.2565 99.1075 92.4065 99.0508 92.4999 99.0042L92.6199 99.5642C92.5265 99.6175 92.3499 99.6808 92.0899 99.7542C91.8365 99.8275 91.5365 99.8642 91.1899 99.8642C90.7365 99.8642 90.3499 99.7975 90.0299 99.6642C89.7099 99.5308 89.4465 99.3442 89.2399 99.1042C89.0332 98.8642 88.8832 98.5808 88.7899 98.2542C88.6965 97.9208 88.6499 97.5575 88.6499 97.1642ZM92.3199 96.7542C92.3065 96.2142 92.1799 95.7942 91.9399 95.4942C91.6999 95.1942 91.3599 95.0442 90.9199 95.0442C90.6865 95.0442 90.4765 95.0908 90.2899 95.1842C90.1099 95.2775 89.9499 95.4042 89.8099 95.5642C89.6765 95.7175 89.5699 95.8975 89.4899 96.1042C89.4165 96.3108 89.3732 96.5275 89.3599 96.7542H92.3199ZM95.9984 99.0542C96.1384 98.7675 96.2817 98.4408 96.4284 98.0742C96.575 97.7008 96.715 97.3175 96.8484 96.9242C96.9884 96.5242 97.115 96.1242 97.2284 95.7242C97.3484 95.3175 97.4484 94.9375 97.5284 94.5842H98.1784C98.0584 95.0575 97.925 95.5242 97.7784 95.9842C97.6317 96.4442 97.475 96.8942 97.3084 97.3342C97.1484 97.7742 96.9784 98.1975 96.7984 98.6042C96.625 99.0108 96.455 99.3942 96.2884 99.7542H95.6684C95.495 99.3942 95.3217 99.0108 95.1484 98.6042C94.975 98.1975 94.805 97.7742 94.6384 97.3342C94.4784 96.8942 94.325 96.4442 94.1784 95.9842C94.0317 95.5242 93.8984 95.0575 93.7784 94.5842H94.4684C94.5484 94.9375 94.645 95.3175 94.7584 95.7242C94.8784 96.1242 95.005 96.5242 95.1384 96.9242C95.2784 97.3175 95.4217 97.7008 95.5684 98.0742C95.715 98.4408 95.8584 98.7675 95.9984 99.0542ZM98.9331 97.1642C98.9331 96.7108 98.9964 96.3175 99.1231 95.9842C99.2564 95.6442 99.4264 95.3608 99.6331 95.1342C99.8464 94.9075 100.086 94.7408 100.353 94.6342C100.626 94.5208 100.906 94.4641 101.193 94.4641C101.826 94.4641 102.33 94.6708 102.703 95.0842C103.083 95.4975 103.273 96.1342 103.273 96.9942C103.273 97.0475 103.27 97.1008 103.263 97.1542C103.263 97.2075 103.26 97.2575 103.253 97.3042H99.6231C99.6431 97.9375 99.7997 98.4242 100.093 98.7642C100.386 99.1042 100.853 99.2742 101.493 99.2742C101.846 99.2742 102.126 99.2408 102.333 99.1742C102.54 99.1075 102.69 99.0508 102.783 99.0042L102.903 99.5642C102.81 99.6175 102.633 99.6808 102.373 99.7542C102.12 99.8275 101.82 99.8642 101.473 99.8642C101.02 99.8642 100.633 99.7975 100.313 99.6642C99.9931 99.5308 99.7297 99.3442 99.5231 99.1042C99.3164 98.8642 99.1664 98.5808 99.0731 98.2542C98.9797 97.9208 98.9331 97.5575 98.9331 97.1642ZM102.603 96.7542C102.59 96.2142 102.463 95.7942 102.223 95.4942C101.983 95.1942 101.643 95.0442 101.203 95.0442C100.97 95.0442 100.76 95.0908 100.573 95.1842C100.393 95.2775 100.233 95.4042 100.093 95.5642C99.9597 95.7175 99.8531 95.8975 99.7731 96.1042C99.6997 96.3108 99.6564 96.5275 99.6431 96.7542H102.603Z" fill="#94B902"/>
<defs>
<filter id="filter0_b_12_10" x="-4" y="-4" width="175" height="101" filterUnits="userSpaceOnUse" color-interpolation-filters="sRGB">
<feFlood flood-opacity="0" result="BackgroundImageFix"/>
<feGaussianBlur in="BackgroundImage" stdDeviation="2"/>
<feComposite in2="SourceAlpha" operator="in" result="effect1_backgroundBlur_12_10"/>
<feBlend mode="normal" in="SourceGraphic" in2="effect1_backgroundBlur_12_10" result="shape"/>
</filter>
<filter id="filter1_b_12_10" x="49.7586" y="79.7586" width="66.4828" height="31.3104" filterUnits="userSpaceOnUse" color-interpolation-filters="sRGB">
<feFlood flood-opacity="0" result="BackgroundImageFix"/>
<feGaussianBlur in="BackgroundImage" stdDeviation="1.62069"/>
<feComposite in2="SourceAlpha" operator="in" result="effect1_backgroundBlur_12_10"/>
<feBlend mode="normal" in="SourceGraphic" in2="effect1_backgroundBlur_12_10" result="shape"/>
</filter>
<linearGradient id="paint0_linear_12_10" x1="83.5" y1="44" x2="83.5" y2="74" gradientUnits="userSpaceOnUse">
<stop stop-color="#94B902"/>
<stop offset="1" stop-color="#3FA043"/>
</linearGradient>
</defs>
</svg>
