<svg width="167" height="109" viewBox="0 0 167 109" fill="none" xmlns="http://www.w3.org/2000/svg">
<g filter="url(#filter0_b_12_6)">
<rect width="167" height="93" rx="24" fill="#00113C" fill-opacity="0.68"/>
</g>
<path d="M59.7475 37.6719V62.75C59.7475 66.125 58.6928 68.8984 56.5834 71.0703C54.3647 73.3359 51.4741 74.4688 47.9116 74.4688C44.6928 74.4688 41.9506 73.3359 39.685 71.0703C39.1225 70.5078 38.7006 69.9609 38.4194 69.4297C38.06 69.9766 37.6225 70.5 37.1069 71C34.7475 73.3125 32.0209 74.4688 28.9272 74.4688C25.4272 74.4688 22.5366 73.3359 20.2553 71.0703C18.1459 68.9766 17.0912 66.2031 17.0912 62.75V39.7812L21.5444 37.6719H21.7787V62.75C21.7787 64.8438 22.3412 66.5391 23.4662 67.8359C24.8569 69.4453 26.6772 70.25 28.9272 70.25C31.1772 70.25 32.9975 69.4453 34.3881 67.8359C35.5131 66.5391 36.0756 64.8438 36.0756 62.75V39.7812L40.5287 37.6719H40.7631V62.75C40.7631 64.8438 41.3256 66.5391 42.4506 67.8359C43.8412 69.4453 45.6616 70.25 47.9116 70.25C50.1616 70.25 51.9819 69.4453 53.3725 67.8359C54.4975 66.5391 55.06 64.8438 55.06 62.75V39.7812L59.5131 37.6719H59.7475ZM63.8425 74.9375V49.8594C63.8425 46.4844 64.8972 43.7109 67.0066 41.5391C69.2253 39.2734 72.1159 38.1406 75.6784 38.1406C79.1784 38.1406 82.0691 39.2734 84.3503 41.5391C86.4597 43.6328 87.5144 46.4062 87.5144 49.8594V72.8281L83.0612 74.9375H82.8269V58.4375H68.53V72.8281L64.0769 74.9375H63.8425ZM68.53 54.1719H82.8269V49.8594C82.8269 47.7656 82.2644 46.0703 81.1394 44.7734C79.7487 43.1641 77.9284 42.3594 75.6784 42.3594C73.4284 42.3594 71.6081 43.1641 70.2175 44.7734C69.0925 46.0703 68.53 47.7656 68.53 49.8594V54.1719ZM93.5547 74.9375V42.875H83.5234V42.6406L85.4219 38.6094H108.273V38.8438L106.375 42.875H98.2422V72.8281L93.7891 74.9375H93.5547ZM105.454 74V39.7812L107.939 38.6094H122.798V38.8438L120.9 42.875H110.142V54.1719H122.798V54.4062L120.9 58.4375H110.142V69.7344H126.712V69.9688L124.814 74H105.454ZM127.315 74.9375V39.7812L129.799 38.6094H138.682C142.245 38.6094 145.135 39.7422 147.354 42.0078C149.463 44.1641 150.518 46.9375 150.518 50.3281C150.518 53.7344 149.463 56.5078 147.354 58.6484C146.104 59.9141 144.643 60.8281 142.971 61.3906L151.081 72.9922L146.956 74.9375H146.721L137.698 62.0469H132.002V72.8281L127.549 74.9375H127.315ZM132.002 57.8281H138.682C140.729 57.8281 142.549 57.0234 144.143 55.4141C145.268 54.2734 145.831 52.5781 145.831 50.3281C145.831 48.2344 145.268 46.5391 144.143 45.2422C142.752 43.6328 140.932 42.8281 138.682 42.8281H132.002V57.8281Z" fill="url(#paint0_linear_12_6)"/>
<path d="M53.1805 30C52.9272 29.32 52.6872 28.6667 52.4605 28.04C52.2339 27.4133 52.0139 26.8 51.8005 26.2H45.0605C44.8339 26.8 44.6072 27.4133 44.3805 28.04C44.1539 28.6667 43.9205 29.32 43.6805 30H42.2605C42.7939 28.56 43.2939 27.22 43.7605 25.98C44.2272 24.7267 44.6805 23.5467 45.1205 22.44C45.5739 21.32 46.0205 20.2467 46.4605 19.22C46.9005 18.1933 47.3672 17.1667 47.8605 16.14H49.0605C49.5539 17.1667 50.0205 18.1933 50.4605 19.22C50.9005 20.2467 51.3405 21.32 51.7805 22.44C52.2339 23.5467 52.6939 24.7267 53.1605 25.98C53.6272 27.22 54.1339 28.56 54.6805 30H53.1805ZM48.4205 17.7C47.9139 18.8467 47.4205 20.0133 46.9405 21.2C46.4739 22.3867 45.9872 23.6667 45.4805 25.04H51.3805C50.8739 23.6667 50.3805 22.3867 49.9005 21.2C49.4205 20.0133 48.9272 18.8467 48.4205 17.7ZM63.1568 23.44H64.5168V29.62C64.2635 29.7267 63.7635 29.86 63.0168 30.02C62.2835 30.1933 61.3768 30.28 60.2968 30.28C59.3901 30.28 58.5501 30.12 57.7768 29.8C57.0035 29.48 56.3301 29.02 55.7568 28.42C55.1968 27.8067 54.7568 27.0533 54.4368 26.16C54.1168 25.2533 53.9568 24.22 53.9568 23.06C53.9568 21.9 54.1301 20.8733 54.4768 19.98C54.8235 19.0733 55.2901 18.32 55.8768 17.72C56.4768 17.1067 57.1701 16.64 57.9568 16.32C58.7435 16 59.5835 15.84 60.4768 15.84C61.5035 15.84 62.3501 15.9533 63.0168 16.18C63.6835 16.3933 64.1701 16.6 64.4768 16.8L64.0168 17.96C63.6435 17.6933 63.1368 17.48 62.4968 17.32C61.8568 17.1467 61.1635 17.06 60.4168 17.06C59.7235 17.06 59.0701 17.1867 58.4568 17.44C57.8435 17.6933 57.3101 18.0733 56.8568 18.58C56.4035 19.0867 56.0435 19.7133 55.7768 20.46C55.5235 21.2067 55.3968 22.0733 55.3968 23.06C55.3968 23.98 55.5035 24.8133 55.7168 25.56C55.9301 26.2933 56.2501 26.9267 56.6768 27.46C57.1168 27.98 57.6568 28.38 58.2968 28.66C58.9368 28.94 59.6768 29.08 60.5168 29.08C61.1968 29.08 61.7635 29.0467 62.2168 28.98C62.6835 28.9 62.9968 28.8267 63.1568 28.76V23.44ZM74.9209 20.3C74.9209 21.34 74.6475 22.16 74.1009 22.76C73.5542 23.36 72.8342 23.7933 71.9409 24.06C72.1542 24.3267 72.4275 24.6867 72.7609 25.14C73.1075 25.5933 73.4609 26.0933 73.8209 26.64C74.1809 27.1733 74.5342 27.7333 74.8809 28.32C75.2275 28.9067 75.5209 29.4667 75.7609 30H74.3009C74.0209 29.4667 73.7142 28.9333 73.3809 28.4C73.0609 27.8667 72.7275 27.3533 72.3809 26.86C72.0475 26.3533 71.7209 25.8867 71.4009 25.46C71.0809 25.0333 70.8009 24.66 70.5609 24.34C70.1342 24.38 69.7075 24.4 69.2809 24.4H67.0409V30H65.6809V16.4C66.1609 16.2667 66.7209 16.1733 67.3609 16.12C68.0142 16.0533 68.6142 16.02 69.1609 16.02C71.0675 16.02 72.5009 16.38 73.4609 17.1C74.4342 17.82 74.9209 18.8867 74.9209 20.3ZM69.3209 17.2C68.8142 17.2 68.3675 17.22 67.9809 17.26C67.6075 17.2867 67.2942 17.3133 67.0409 17.34V23.24H68.9209C69.5475 23.24 70.1409 23.2133 70.7009 23.16C71.2609 23.0933 71.7475 22.96 72.1609 22.76C72.5742 22.5467 72.9009 22.2467 73.1409 21.86C73.3809 21.4733 73.5009 20.9467 73.5009 20.28C73.5009 19.6667 73.3809 19.16 73.1409 18.76C72.9009 18.36 72.5875 18.0467 72.2009 17.82C71.8142 17.58 71.3675 17.42 70.8609 17.34C70.3675 17.2467 69.8542 17.2 69.3209 17.2ZM85.9305 30C85.6772 29.32 85.4372 28.6667 85.2105 28.04C84.9839 27.4133 84.7639 26.8 84.5505 26.2H77.8105C77.5839 26.8 77.3572 27.4133 77.1305 28.04C76.9039 28.6667 76.6705 29.32 76.4305 30H75.0105C75.5439 28.56 76.0439 27.22 76.5105 25.98C76.9772 24.7267 77.4305 23.5467 77.8705 22.44C78.3239 21.32 78.7705 20.2467 79.2105 19.22C79.6505 18.1933 80.1172 17.1667 80.6105 16.14H81.8105C82.3039 17.1667 82.7705 18.1933 83.2105 19.22C83.6505 20.2467 84.0905 21.32 84.5305 22.44C84.9839 23.5467 85.4439 24.7267 85.9105 25.98C86.3772 27.22 86.8839 28.56 87.4305 30H85.9305ZM81.1705 17.7C80.6639 18.8467 80.1705 20.0133 79.6905 21.2C79.2239 22.3867 78.7372 23.6667 78.2305 25.04H84.1305C83.6239 23.6667 83.1305 22.3867 82.6505 21.2C82.1705 20.0133 81.6772 18.8467 81.1705 17.7ZM96.663 20.3C96.663 21.34 96.3897 22.16 95.843 22.76C95.2964 23.36 94.5764 23.7933 93.683 24.06C93.8964 24.3267 94.1697 24.6867 94.503 25.14C94.8497 25.5933 95.203 26.0933 95.563 26.64C95.923 27.1733 96.2764 27.7333 96.623 28.32C96.9697 28.9067 97.263 29.4667 97.503 30H96.043C95.763 29.4667 95.4564 28.9333 95.123 28.4C94.803 27.8667 94.4697 27.3533 94.123 26.86C93.7897 26.3533 93.463 25.8867 93.143 25.46C92.823 25.0333 92.543 24.66 92.303 24.34C91.8764 24.38 91.4497 24.4 91.023 24.4H88.783V30H87.423V16.4C87.903 16.2667 88.463 16.1733 89.103 16.12C89.7564 16.0533 90.3564 16.02 90.903 16.02C92.8097 16.02 94.243 16.38 95.203 17.1C96.1764 17.82 96.663 18.8867 96.663 20.3ZM91.063 17.2C90.5564 17.2 90.1097 17.22 89.723 17.26C89.3497 17.2867 89.0364 17.3133 88.783 17.34V23.24H90.663C91.2897 23.24 91.883 23.2133 92.443 23.16C93.003 23.0933 93.4897 22.96 93.903 22.76C94.3164 22.5467 94.643 22.2467 94.883 21.86C95.123 21.4733 95.243 20.9467 95.243 20.28C95.243 19.6667 95.123 19.16 94.883 18.76C94.643 18.36 94.3297 18.0467 93.943 17.82C93.5564 17.58 93.1097 17.42 92.603 17.34C92.1097 17.2467 91.5964 17.2 91.063 17.2ZM97.7863 16.14H99.1463V30H97.7863V16.14ZM110.067 30C109.814 29.32 109.574 28.6667 109.347 28.04C109.121 27.4133 108.901 26.8 108.687 26.2H101.947C101.721 26.8 101.494 27.4133 101.267 28.04C101.041 28.6667 100.807 29.32 100.567 30H99.1473C99.6806 28.56 100.181 27.22 100.647 25.98C101.114 24.7267 101.567 23.5467 102.007 22.44C102.461 21.32 102.907 20.2467 103.347 19.22C103.787 18.1933 104.254 17.1667 104.747 16.14H105.947C106.441 17.1667 106.907 18.1933 107.347 19.22C107.787 20.2467 108.227 21.32 108.667 22.44C109.121 23.5467 109.581 24.7267 110.047 25.98C110.514 27.22 111.021 28.56 111.567 30H110.067ZM105.307 17.7C104.801 18.8467 104.307 20.0133 103.827 21.2C103.361 22.3867 102.874 23.6667 102.367 25.04H108.267C107.761 23.6667 107.267 22.3867 106.787 21.2C106.307 20.0133 105.814 18.8467 105.307 17.7ZM121 30C120.746 29.5333 120.42 28.9867 120.02 28.36C119.633 27.7333 119.206 27.0667 118.74 26.36C118.273 25.64 117.78 24.9067 117.26 24.16C116.74 23.4 116.22 22.6667 115.7 21.96C115.193 21.24 114.693 20.5667 114.2 19.94C113.72 19.3133 113.286 18.7733 112.9 18.32V30H111.56V16.14H112.64C113.32 16.9 114.046 17.78 114.82 18.78C115.606 19.7667 116.373 20.78 117.12 21.82C117.866 22.8467 118.56 23.8533 119.2 24.84C119.853 25.8267 120.386 26.6867 120.8 27.42V16.14H122.14V30H121Z" fill="white"/>
<g filter="url(#filter1_b_12_6)">
<rect x="53" y="83.2759" width="60" height="24.8276" rx="9.72414" fill="#05102D"/>
<rect x="53.4052" y="83.6811" width="59.1897" height="24.0172" rx="9.31897" stroke="#3D67A0" stroke-width="0.810345"/>
</g>
<path d="M65.4554 99.87C65.262 99.9367 65.0154 100 64.7154 100.06C64.4154 100.12 64.0354 100.15 63.5754 100.15C63.1954 100.15 62.8487 100.09 62.5354 99.97C62.2287 99.8434 61.962 99.6634 61.7354 99.43C61.5154 99.1967 61.342 98.9134 61.2154 98.58C61.0954 98.2467 61.0354 97.87 61.0354 97.45C61.0354 97.0567 61.0854 96.6967 61.1854 96.37C61.292 96.0367 61.4454 95.75 61.6454 95.51C61.8454 95.27 62.0887 95.0834 62.3754 94.95C62.6687 94.8167 63.002 94.75 63.3754 94.75C63.7154 94.75 64.0087 94.8 64.2554 94.9C64.5087 94.9934 64.692 95.0834 64.8054 95.17V92.39L65.4554 92.27V99.87ZM64.8054 95.8C64.7454 95.7534 64.6687 95.7034 64.5754 95.65C64.4887 95.5967 64.3854 95.5467 64.2654 95.5C64.1454 95.4534 64.0154 95.4167 63.8754 95.39C63.7354 95.3567 63.5887 95.34 63.4354 95.34C63.1154 95.34 62.8454 95.3967 62.6254 95.51C62.412 95.6234 62.2387 95.7767 62.1054 95.97C61.972 96.1567 61.8754 96.38 61.8154 96.64C61.7554 96.8934 61.7254 97.1634 61.7254 97.45C61.7254 98.13 61.8954 98.6534 62.2354 99.02C62.5754 99.38 63.0254 99.56 63.5854 99.56C63.9054 99.56 64.162 99.5467 64.3554 99.52C64.5554 99.4867 64.7054 99.4534 64.8054 99.42V95.8ZM67.8254 100.03H67.1754V94.86H67.8254V100.03ZM67.9754 93.3C67.9754 93.4534 67.9288 93.5767 67.8354 93.67C67.7421 93.7567 67.6288 93.8 67.4954 93.8C67.3621 93.8 67.2488 93.7567 67.1554 93.67C67.0621 93.5767 67.0154 93.4534 67.0154 93.3C67.0154 93.1467 67.0621 93.0267 67.1554 92.94C67.2488 92.8467 67.3621 92.8 67.4954 92.8C67.6288 92.8 67.7421 92.8467 67.8354 92.94C67.9288 93.0267 67.9754 93.1467 67.9754 93.3ZM70.6085 99.57C70.9818 99.57 71.2885 99.51 71.5285 99.39C71.7751 99.2634 71.8985 99.0534 71.8985 98.76C71.8985 98.62 71.8751 98.5 71.8285 98.4C71.7885 98.3 71.7185 98.21 71.6185 98.13C71.5185 98.05 71.3851 97.9734 71.2185 97.9C71.0585 97.8267 70.8585 97.74 70.6185 97.64C70.4251 97.56 70.2418 97.48 70.0685 97.4C69.8951 97.3134 69.7418 97.2167 69.6085 97.11C69.4751 96.9967 69.3685 96.8634 69.2885 96.71C69.2085 96.5567 69.1685 96.37 69.1685 96.15C69.1685 95.73 69.3251 95.39 69.6385 95.13C69.9585 94.87 70.3951 94.74 70.9485 94.74C71.3018 94.74 71.5918 94.77 71.8185 94.83C72.0518 94.89 72.2151 94.9434 72.3085 94.99L72.1585 95.57C72.0785 95.53 71.9418 95.4767 71.7485 95.41C71.5618 95.3434 71.2851 95.31 70.9185 95.31C70.7718 95.31 70.6318 95.3267 70.4985 95.36C70.3718 95.3867 70.2585 95.4334 70.1585 95.5C70.0585 95.56 69.9785 95.64 69.9185 95.74C69.8585 95.8334 69.8285 95.95 69.8285 96.09C69.8285 96.23 69.8551 96.35 69.9085 96.45C69.9618 96.55 70.0385 96.64 70.1385 96.72C70.2451 96.7934 70.3718 96.8634 70.5185 96.93C70.6718 96.9967 70.8451 97.07 71.0385 97.15C71.2385 97.23 71.4285 97.3134 71.6085 97.4C71.7951 97.48 71.9585 97.58 72.0985 97.7C72.2385 97.8134 72.3518 97.9534 72.4385 98.12C72.5251 98.28 72.5685 98.4834 72.5685 98.73C72.5685 99.1967 72.3918 99.55 72.0385 99.79C71.6918 100.03 71.2151 100.15 70.6085 100.15C70.1551 100.15 69.8085 100.11 69.5685 100.03C69.3285 99.9567 69.1685 99.9 69.0885 99.86L69.2585 99.27C69.2785 99.2834 69.3218 99.3067 69.3885 99.34C69.4551 99.3667 69.5451 99.4 69.6585 99.44C69.7718 99.4734 69.9051 99.5034 70.0585 99.53C70.2185 99.5567 70.4018 99.57 70.6085 99.57ZM74.4758 99.1C74.5358 99.1467 74.6092 99.1967 74.6958 99.25C74.7892 99.3034 74.8958 99.3534 75.0158 99.4C75.1358 99.4467 75.2658 99.4867 75.4058 99.52C75.5458 99.5467 75.6925 99.56 75.8458 99.56C76.1658 99.56 76.4325 99.5067 76.6458 99.4C76.8658 99.2867 77.0425 99.1367 77.1758 98.95C77.3092 98.7567 77.4058 98.5334 77.4658 98.28C77.5258 98.02 77.5558 97.7467 77.5558 97.46C77.5558 96.78 77.3858 96.26 77.0458 95.9C76.7058 95.5334 76.2558 95.35 75.6958 95.35C75.3758 95.35 75.1158 95.3667 74.9158 95.4C74.7225 95.4267 74.5758 95.4567 74.4758 95.49V99.1ZM74.4758 101.88H73.8258V95.04C74.0192 94.9734 74.2658 94.91 74.5658 94.85C74.8658 94.79 75.2458 94.76 75.7058 94.76C76.0858 94.76 76.4292 94.8234 76.7358 94.95C77.0492 95.07 77.3158 95.2467 77.5358 95.48C77.7625 95.7134 77.9358 95.9967 78.0558 96.33C78.1825 96.6634 78.2458 97.04 78.2458 97.46C78.2458 97.8534 78.1925 98.2167 78.0858 98.55C77.9858 98.8767 77.8358 99.16 77.6358 99.4C77.4358 99.6334 77.1892 99.8167 76.8958 99.95C76.6092 100.083 76.2792 100.15 75.9058 100.15C75.5658 100.15 75.2692 100.103 75.0158 100.01C74.7692 99.91 74.5892 99.8167 74.4758 99.73V101.88ZM84.0659 97.45C84.0659 97.8567 84.0059 98.2267 83.8859 98.56C83.7726 98.8934 83.6092 99.1767 83.3959 99.41C83.1892 99.6434 82.9426 99.8267 82.6559 99.96C82.3692 100.087 82.0526 100.15 81.7059 100.15C81.3592 100.15 81.0426 100.087 80.7559 99.96C80.4692 99.8267 80.2192 99.6434 80.0059 99.41C79.7992 99.1767 79.6359 98.8934 79.5159 98.56C79.4026 98.2267 79.3459 97.8567 79.3459 97.45C79.3459 97.0434 79.4026 96.6734 79.5159 96.34C79.6359 96.0067 79.7992 95.7234 80.0059 95.49C80.2192 95.25 80.4692 95.0667 80.7559 94.94C81.0426 94.8067 81.3592 94.74 81.7059 94.74C82.0526 94.74 82.3692 94.8067 82.6559 94.94C82.9426 95.0667 83.1892 95.25 83.3959 95.49C83.6092 95.7234 83.7726 96.0067 83.8859 96.34C84.0059 96.6734 84.0659 97.0434 84.0659 97.45ZM83.3759 97.45C83.3759 96.8034 83.2259 96.29 82.9259 95.91C82.6259 95.5234 82.2192 95.33 81.7059 95.33C81.1926 95.33 80.7859 95.5234 80.4859 95.91C80.1859 96.29 80.0359 96.8034 80.0359 97.45C80.0359 98.0967 80.1859 98.61 80.4859 98.99C80.7859 99.37 81.1926 99.56 81.7059 99.56C82.2192 99.56 82.6259 99.37 82.9259 98.99C83.2259 98.61 83.3759 98.0967 83.3759 97.45ZM85.4762 95.04C85.6695 94.9867 85.9295 94.9267 86.2562 94.86C86.5829 94.7934 86.9829 94.76 87.4562 94.76C87.8495 94.76 88.1762 94.8167 88.4362 94.93C88.7029 95.0434 88.9129 95.2067 89.0662 95.42C89.2262 95.6267 89.3395 95.8767 89.4062 96.17C89.4729 96.4634 89.5062 96.7867 89.5062 97.14V100.03H88.8562V97.35C88.8562 96.9834 88.8295 96.6734 88.7762 96.42C88.7295 96.1667 88.6462 95.96 88.5262 95.8C88.4129 95.64 88.2595 95.5267 88.0662 95.46C87.8795 95.3867 87.6429 95.35 87.3562 95.35C87.0495 95.35 86.7829 95.3667 86.5562 95.4C86.3362 95.4334 86.1929 95.4634 86.1262 95.49V100.03H85.4762V95.04ZM91.8196 100.03H91.1696V94.86H91.8196V100.03ZM92.8796 92.81L91.1696 94.2L90.8396 93.82L92.4196 92.3L92.8796 92.81ZM95.1026 99.33C95.2426 99.0434 95.386 98.7167 95.5326 98.35C95.6793 97.9767 95.8193 97.5934 95.9526 97.2C96.0926 96.8 96.2193 96.4 96.3326 96C96.4526 95.5934 96.5526 95.2134 96.6326 94.86H97.2826C97.1626 95.3334 97.0293 95.8 96.8826 96.26C96.736 96.72 96.5793 97.17 96.4126 97.61C96.2526 98.05 96.0826 98.4734 95.9026 98.88C95.7293 99.2867 95.5593 99.67 95.3926 100.03H94.7726C94.5993 99.67 94.426 99.2867 94.2526 98.88C94.0793 98.4734 93.9093 98.05 93.7426 97.61C93.5826 97.17 93.4293 96.72 93.2826 96.26C93.136 95.8 93.0026 95.3334 92.8826 94.86H93.5726C93.6526 95.2134 93.7493 95.5934 93.8626 96C93.9826 96.4 94.1093 96.8 94.2426 97.2C94.3826 97.5934 94.526 97.9767 94.6726 98.35C94.8193 98.7167 94.9626 99.0434 95.1026 99.33ZM98.0373 97.44C98.0373 96.9867 98.1006 96.5934 98.2273 96.26C98.3606 95.92 98.5306 95.6367 98.7373 95.41C98.9506 95.1834 99.1906 95.0167 99.4573 94.91C99.7306 94.7967 100.011 94.74 100.297 94.74C100.931 94.74 101.434 94.9467 101.807 95.36C102.187 95.7734 102.377 96.41 102.377 97.27C102.377 97.3234 102.374 97.3767 102.367 97.43C102.367 97.4834 102.364 97.5334 102.357 97.58H98.7273C98.7473 98.2134 98.904 98.7 99.1973 99.04C99.4906 99.38 99.9573 99.55 100.597 99.55C100.951 99.55 101.231 99.5167 101.437 99.45C101.644 99.3834 101.794 99.3267 101.887 99.28L102.007 99.84C101.914 99.8934 101.737 99.9567 101.477 100.03C101.224 100.103 100.924 100.14 100.577 100.14C100.124 100.14 99.7373 100.073 99.4173 99.94C99.0973 99.8067 98.834 99.62 98.6273 99.38C98.4206 99.14 98.2706 98.8567 98.1773 98.53C98.084 98.1967 98.0373 97.8334 98.0373 97.44ZM101.707 97.03C101.694 96.49 101.567 96.07 101.327 95.77C101.087 95.47 100.747 95.32 100.307 95.32C100.074 95.32 99.864 95.3667 99.6773 95.46C99.4973 95.5534 99.3373 95.68 99.1973 95.84C99.064 95.9934 98.9573 96.1734 98.8773 96.38C98.804 96.5867 98.7606 96.8034 98.7473 97.03H101.707ZM105.136 100.12C104.916 100.113 104.722 100.083 104.556 100.03C104.396 99.9834 104.259 99.91 104.146 99.81C104.039 99.7034 103.956 99.57 103.896 99.41C103.842 99.2434 103.816 99.0367 103.816 98.79V92.39L104.466 92.27V98.77C104.466 98.93 104.479 99.06 104.506 99.16C104.539 99.2534 104.586 99.33 104.646 99.39C104.706 99.4434 104.782 99.4834 104.876 99.51C104.976 99.5367 105.092 99.56 105.226 99.58L105.136 100.12Z" fill="#3D67A0"/>
<defs>
<filter id="filter0_b_12_6" x="-4" y="-4" width="175" height="101" filterUnits="userSpaceOnUse" color-interpolation-filters="sRGB">
<feFlood flood-opacity="0" result="BackgroundImageFix"/>
<feGaussianBlur in="BackgroundImage" stdDeviation="2"/>
<feComposite in2="SourceAlpha" operator="in" result="effect1_backgroundBlur_12_6"/>
<feBlend mode="normal" in="SourceGraphic" in2="effect1_backgroundBlur_12_6" result="shape"/>
</filter>
<filter id="filter1_b_12_6" x="49.7586" y="80.0345" width="66.4828" height="31.3104" filterUnits="userSpaceOnUse" color-interpolation-filters="sRGB">
<feFlood flood-opacity="0" result="BackgroundImageFix"/>
<feGaussianBlur in="BackgroundImage" stdDeviation="1.62069"/>
<feComposite in2="SourceAlpha" operator="in" result="effect1_backgroundBlur_12_6"/>
<feBlend mode="normal" in="SourceGraphic" in2="effect1_backgroundBlur_12_6" result="shape"/>
</filter>
<linearGradient id="paint0_linear_12_6" x1="83.5" y1="44" x2="83.5" y2="74" gradientUnits="userSpaceOnUse">
<stop stop-color="#02B9AE"/>
<stop offset="1" stop-color="#3F66A0"/>
</linearGradient>
</defs>
</svg>
