<svg width="167" height="109" viewBox="0 0 167 109" fill="none" xmlns="http://www.w3.org/2000/svg">
<g filter="url(#filter0_b_42_17)">
<rect width="167" height="93" rx="24" fill="black"/>
</g>
<path d="M54.545 61.1094V62.75C54.545 66.1406 53.4903 68.9141 51.3809 71.0703C49.1622 73.3359 46.2716 74.4688 42.7091 74.4688C39.1466 74.4688 36.2559 73.3359 34.0372 71.0703C31.9278 68.9141 30.8731 66.1406 30.8731 62.75V49.8594C30.8731 46.4688 31.9278 43.6953 34.0372 41.5391C36.2559 39.2734 39.1466 38.1406 42.7091 38.1406C46.3966 38.1406 49.2872 39.2734 51.3809 41.5391C53.4903 43.8047 54.545 46.4219 54.545 49.3906L50.0919 51.5H49.8575V49.8594C49.8575 47.7656 49.295 46.0703 48.17 44.7734C46.7794 43.1641 44.9591 42.3594 42.7091 42.3594C40.4591 42.3594 38.6388 43.1641 37.2481 44.7734C36.1231 46.0703 35.5606 47.7656 35.5606 49.8594V62.75C35.5606 64.8438 36.1231 66.5391 37.2481 67.8359C38.6388 69.4453 40.4591 70.25 42.7091 70.25C44.9591 70.25 46.7794 69.4453 48.17 67.8359C49.295 66.5391 49.8575 65 49.8575 63.2188L54.3106 61.1094H54.545ZM58.64 74.9375V39.7812L61.1244 38.6094H70.0072C73.5697 38.6094 76.4603 39.7422 78.6791 42.0078C80.7884 44.1641 81.8431 46.9375 81.8431 50.3281C81.8431 53.7344 80.7884 56.5078 78.6791 58.6484C77.4291 59.9141 75.9681 60.8281 74.2963 61.3906L82.4056 72.9922L78.2806 74.9375H78.0463L69.0228 62.0469H63.3275V72.8281L58.8744 74.9375H58.64ZM63.3275 57.8281H70.0072C72.0541 57.8281 73.8744 57.0234 75.4681 55.4141C76.5931 54.2734 77.1556 52.5781 77.1556 50.3281C77.1556 48.2344 76.5931 46.5391 75.4681 45.2422C74.0775 43.6328 72.2572 42.8281 70.0072 42.8281H63.3275V57.8281ZM90.0163 62.75C90.0163 64.8438 90.5788 66.5391 91.7038 67.8359C93.0944 69.4453 94.9147 70.25 97.1647 70.25C99.4147 70.25 101.235 69.4453 102.626 67.8359C103.751 66.5391 104.313 64.8438 104.313 62.75V49.8594C104.313 47.7656 103.751 46.0703 102.626 44.7734C101.235 43.1641 99.4147 42.3594 97.1647 42.3594C94.9147 42.3594 93.0944 43.1641 91.7038 44.7734C90.5788 46.0703 90.0163 47.7656 90.0163 49.8594V62.75ZM85.3288 62.75V49.8594C85.3288 46.4688 86.3834 43.6953 88.4928 41.5391C90.7116 39.2734 93.6022 38.1406 97.1647 38.1406C100.727 38.1406 103.618 39.2734 105.837 41.5391C107.946 43.6797 109.001 46.4531 109.001 49.8594V62.75C109.001 66.1406 107.946 68.9141 105.837 71.0703C103.618 73.3359 100.727 74.4688 97.1647 74.4688C93.6022 74.4688 90.7116 73.3359 88.4928 71.0703C86.3834 68.9141 85.3288 66.1406 85.3288 62.75ZM117.783 57.8281H124.463C126.51 57.8281 128.33 57.0234 129.924 55.4141C131.049 54.2734 131.611 52.5781 131.611 50.3281C131.611 48.2344 131.049 46.5391 129.924 45.2422C128.533 43.6328 126.713 42.8281 124.463 42.8281H117.783V57.8281ZM113.096 74.9375V39.7812L115.58 38.6094H124.463C128.025 38.6094 130.916 39.7422 133.135 42.0078C135.244 44.1641 136.299 46.9375 136.299 50.3281C136.299 53.7344 135.244 56.5078 133.135 58.6484C130.9 60.9141 128.01 62.0469 124.463 62.0469H117.783V72.8281L113.33 74.9375H113.096Z" fill="url(#paint0_linear_42_17)"/>
<path d="M53.1805 30C52.9272 29.32 52.6872 28.6667 52.4605 28.04C52.2339 27.4133 52.0139 26.8 51.8005 26.2H45.0605C44.8339 26.8 44.6072 27.4133 44.3805 28.04C44.1539 28.6667 43.9205 29.32 43.6805 30H42.2605C42.7939 28.56 43.2939 27.22 43.7605 25.98C44.2272 24.7267 44.6805 23.5467 45.1205 22.44C45.5739 21.32 46.0205 20.2467 46.4605 19.22C46.9005 18.1933 47.3672 17.1667 47.8605 16.14H49.0605C49.5539 17.1667 50.0205 18.1933 50.4605 19.22C50.9005 20.2467 51.3405 21.32 51.7805 22.44C52.2339 23.5467 52.6939 24.7267 53.1605 25.98C53.6272 27.22 54.1339 28.56 54.6805 30H53.1805ZM48.4205 17.7C47.9139 18.8467 47.4205 20.0133 46.9405 21.2C46.4739 22.3867 45.9872 23.6667 45.4805 25.04H51.3805C50.8739 23.6667 50.3805 22.3867 49.9005 21.2C49.4205 20.0133 48.9272 18.8467 48.4205 17.7ZM63.1568 23.44H64.5168V29.62C64.2635 29.7267 63.7635 29.86 63.0168 30.02C62.2835 30.1933 61.3768 30.28 60.2968 30.28C59.3901 30.28 58.5501 30.12 57.7768 29.8C57.0035 29.48 56.3301 29.02 55.7568 28.42C55.1968 27.8067 54.7568 27.0533 54.4368 26.16C54.1168 25.2533 53.9568 24.22 53.9568 23.06C53.9568 21.9 54.1301 20.8733 54.4768 19.98C54.8235 19.0733 55.2901 18.32 55.8768 17.72C56.4768 17.1067 57.1701 16.64 57.9568 16.32C58.7435 16 59.5835 15.84 60.4768 15.84C61.5035 15.84 62.3501 15.9533 63.0168 16.18C63.6835 16.3933 64.1701 16.6 64.4768 16.8L64.0168 17.96C63.6435 17.6933 63.1368 17.48 62.4968 17.32C61.8568 17.1467 61.1635 17.06 60.4168 17.06C59.7235 17.06 59.0701 17.1867 58.4568 17.44C57.8435 17.6933 57.3101 18.0733 56.8568 18.58C56.4035 19.0867 56.0435 19.7133 55.7768 20.46C55.5235 21.2067 55.3968 22.0733 55.3968 23.06C55.3968 23.98 55.5035 24.8133 55.7168 25.56C55.9301 26.2933 56.2501 26.9267 56.6768 27.46C57.1168 27.98 57.6568 28.38 58.2968 28.66C58.9368 28.94 59.6768 29.08 60.5168 29.08C61.1968 29.08 61.7635 29.0467 62.2168 28.98C62.6835 28.9 62.9968 28.8267 63.1568 28.76V23.44ZM74.9209 20.3C74.9209 21.34 74.6475 22.16 74.1009 22.76C73.5542 23.36 72.8342 23.7933 71.9409 24.06C72.1542 24.3267 72.4275 24.6867 72.7609 25.14C73.1075 25.5933 73.4609 26.0933 73.8209 26.64C74.1809 27.1733 74.5342 27.7333 74.8809 28.32C75.2275 28.9067 75.5209 29.4667 75.7609 30H74.3009C74.0209 29.4667 73.7142 28.9333 73.3809 28.4C73.0609 27.8667 72.7275 27.3533 72.3809 26.86C72.0475 26.3533 71.7209 25.8867 71.4009 25.46C71.0809 25.0333 70.8009 24.66 70.5609 24.34C70.1342 24.38 69.7075 24.4 69.2809 24.4H67.0409V30H65.6809V16.4C66.1609 16.2667 66.7209 16.1733 67.3609 16.12C68.0142 16.0533 68.6142 16.02 69.1609 16.02C71.0675 16.02 72.5009 16.38 73.4609 17.1C74.4342 17.82 74.9209 18.8867 74.9209 20.3ZM69.3209 17.2C68.8142 17.2 68.3675 17.22 67.9809 17.26C67.6075 17.2867 67.2942 17.3133 67.0409 17.34V23.24H68.9209C69.5475 23.24 70.1409 23.2133 70.7009 23.16C71.2609 23.0933 71.7475 22.96 72.1609 22.76C72.5742 22.5467 72.9009 22.2467 73.1409 21.86C73.3809 21.4733 73.5009 20.9467 73.5009 20.28C73.5009 19.6667 73.3809 19.16 73.1409 18.76C72.9009 18.36 72.5875 18.0467 72.2009 17.82C71.8142 17.58 71.3675 17.42 70.8609 17.34C70.3675 17.2467 69.8542 17.2 69.3209 17.2ZM85.9305 30C85.6772 29.32 85.4372 28.6667 85.2105 28.04C84.9839 27.4133 84.7639 26.8 84.5505 26.2H77.8105C77.5839 26.8 77.3572 27.4133 77.1305 28.04C76.9039 28.6667 76.6705 29.32 76.4305 30H75.0105C75.5439 28.56 76.0439 27.22 76.5105 25.98C76.9772 24.7267 77.4305 23.5467 77.8705 22.44C78.3239 21.32 78.7705 20.2467 79.2105 19.22C79.6505 18.1933 80.1172 17.1667 80.6105 16.14H81.8105C82.3039 17.1667 82.7705 18.1933 83.2105 19.22C83.6505 20.2467 84.0905 21.32 84.5305 22.44C84.9839 23.5467 85.4439 24.7267 85.9105 25.98C86.3772 27.22 86.8839 28.56 87.4305 30H85.9305ZM81.1705 17.7C80.6639 18.8467 80.1705 20.0133 79.6905 21.2C79.2239 22.3867 78.7372 23.6667 78.2305 25.04H84.1305C83.6239 23.6667 83.1305 22.3867 82.6505 21.2C82.1705 20.0133 81.6772 18.8467 81.1705 17.7ZM96.663 20.3C96.663 21.34 96.3897 22.16 95.843 22.76C95.2964 23.36 94.5764 23.7933 93.683 24.06C93.8964 24.3267 94.1697 24.6867 94.503 25.14C94.8497 25.5933 95.203 26.0933 95.563 26.64C95.923 27.1733 96.2764 27.7333 96.623 28.32C96.9697 28.9067 97.263 29.4667 97.503 30H96.043C95.763 29.4667 95.4564 28.9333 95.123 28.4C94.803 27.8667 94.4697 27.3533 94.123 26.86C93.7897 26.3533 93.463 25.8867 93.143 25.46C92.823 25.0333 92.543 24.66 92.303 24.34C91.8764 24.38 91.4497 24.4 91.023 24.4H88.783V30H87.423V16.4C87.903 16.2667 88.463 16.1733 89.103 16.12C89.7564 16.0533 90.3564 16.02 90.903 16.02C92.8097 16.02 94.243 16.38 95.203 17.1C96.1764 17.82 96.663 18.8867 96.663 20.3ZM91.063 17.2C90.5564 17.2 90.1097 17.22 89.723 17.26C89.3497 17.2867 89.0364 17.3133 88.783 17.34V23.24H90.663C91.2897 23.24 91.883 23.2133 92.443 23.16C93.003 23.0933 93.4897 22.96 93.903 22.76C94.3164 22.5467 94.643 22.2467 94.883 21.86C95.123 21.4733 95.243 20.9467 95.243 20.28C95.243 19.6667 95.123 19.16 94.883 18.76C94.643 18.36 94.3297 18.0467 93.943 17.82C93.5564 17.58 93.1097 17.42 92.603 17.34C92.1097 17.2467 91.5964 17.2 91.063 17.2ZM97.7863 16.14H99.1463V30H97.7863V16.14ZM110.067 30C109.814 29.32 109.574 28.6667 109.347 28.04C109.121 27.4133 108.901 26.8 108.687 26.2H101.947C101.721 26.8 101.494 27.4133 101.267 28.04C101.041 28.6667 100.807 29.32 100.567 30H99.1473C99.6806 28.56 100.181 27.22 100.647 25.98C101.114 24.7267 101.567 23.5467 102.007 22.44C102.461 21.32 102.907 20.2467 103.347 19.22C103.787 18.1933 104.254 17.1667 104.747 16.14H105.947C106.441 17.1667 106.907 18.1933 107.347 19.22C107.787 20.2467 108.227 21.32 108.667 22.44C109.121 23.5467 109.581 24.7267 110.047 25.98C110.514 27.22 111.021 28.56 111.567 30H110.067ZM105.307 17.7C104.801 18.8467 104.307 20.0133 103.827 21.2C103.361 22.3867 102.874 23.6667 102.367 25.04H108.267C107.761 23.6667 107.267 22.3867 106.787 21.2C106.307 20.0133 105.814 18.8467 105.307 17.7ZM121 30C120.746 29.5333 120.42 28.9867 120.02 28.36C119.633 27.7333 119.206 27.0667 118.74 26.36C118.273 25.64 117.78 24.9067 117.26 24.16C116.74 23.4 116.22 22.6667 115.7 21.96C115.193 21.24 114.693 20.5667 114.2 19.94C113.72 19.3133 113.286 18.7733 112.9 18.32V30H111.56V16.14H112.64C113.32 16.9 114.046 17.78 114.82 18.78C115.606 19.7667 116.373 20.78 117.12 21.82C117.866 22.8467 118.56 23.8533 119.2 24.84C119.853 25.8267 120.386 26.6867 120.8 27.42V16.14H122.14V30H121Z" fill="white"/>
<g filter="url(#filter1_b_42_17)">
<rect x="53" y="83.2759" width="60" height="24.8276" rx="9.72414" fill="#1F1F1F"/>
<rect x="53.4052" y="83.6811" width="59.1897" height="24.0172" rx="9.31897" stroke="#727272" stroke-width="0.810345"/>
</g>
<path d="M62.6928 97.4401C62.6928 96.9868 62.7562 96.5934 62.8828 96.2601C63.0162 95.9201 63.1862 95.6368 63.3928 95.4101C63.6062 95.1834 63.8462 95.0168 64.1128 94.9101C64.3862 94.7968 64.6662 94.7401 64.9528 94.7401C65.5862 94.7401 66.0895 94.9468 66.4628 95.3601C66.8428 95.7734 67.0328 96.4101 67.0328 97.2701C67.0328 97.3234 67.0295 97.3768 67.0228 97.4301C67.0228 97.4834 67.0195 97.5334 67.0128 97.5801H63.3828C63.4028 98.2134 63.5595 98.7001 63.8528 99.0401C64.1462 99.3801 64.6128 99.5501 65.2528 99.5501C65.6062 99.5501 65.8862 99.5168 66.0928 99.4501C66.2995 99.3834 66.4495 99.3268 66.5428 99.2801L66.6628 99.8401C66.5695 99.8934 66.3928 99.9568 66.1328 100.03C65.8795 100.103 65.5795 100.14 65.2328 100.14C64.7795 100.14 64.3928 100.073 64.0728 99.9401C63.7528 99.8068 63.4895 99.6201 63.2828 99.3801C63.0762 99.1401 62.9262 98.8568 62.8328 98.5301C62.7395 98.1968 62.6928 97.8334 62.6928 97.4401ZM66.3628 97.0301C66.3495 96.4901 66.2228 96.0701 65.9828 95.7701C65.7428 95.4701 65.4028 95.3201 64.9628 95.3201C64.7295 95.3201 64.5195 95.3668 64.3328 95.4601C64.1528 95.5534 63.9928 95.6801 63.8528 95.8401C63.7195 95.9934 63.6128 96.1734 63.5328 96.3801C63.4595 96.5868 63.4162 96.8034 63.4028 97.0301H66.3628ZM68.4813 95.0401C68.6747 94.9868 68.9247 94.9268 69.2313 94.8601C69.5447 94.7934 69.948 94.7601 70.4413 94.7601C71.0947 94.7601 71.568 94.9501 71.8613 95.3301C71.8947 95.3034 71.958 95.2601 72.0513 95.2001C72.1513 95.1334 72.2747 95.0668 72.4213 95.0001C72.568 94.9334 72.738 94.8768 72.9313 94.8301C73.1313 94.7834 73.3513 94.7601 73.5913 94.7601C73.9847 94.7601 74.3013 94.8201 74.5413 94.9401C74.788 95.0534 74.978 95.2168 75.1113 95.4301C75.2447 95.6368 75.3347 95.8868 75.3813 96.1801C75.428 96.4734 75.4513 96.7934 75.4513 97.1401V100.03H74.8013V97.3501C74.8013 97.0101 74.7847 96.7168 74.7513 96.4701C74.7247 96.2168 74.6647 96.0101 74.5713 95.8501C74.4847 95.6834 74.358 95.5601 74.1913 95.4801C74.0247 95.3934 73.808 95.3501 73.5413 95.3501C73.3413 95.3501 73.158 95.3701 72.9913 95.4101C72.8313 95.4434 72.6913 95.4868 72.5713 95.5401C72.4513 95.5934 72.3513 95.6468 72.2713 95.7001C72.198 95.7534 72.1447 95.7934 72.1113 95.8201C72.1713 95.9934 72.2147 96.1901 72.2413 96.4101C72.2747 96.6234 72.2913 96.8501 72.2913 97.0901V100.03H71.6413V97.3501C71.6413 97.0101 71.6247 96.7168 71.5913 96.4701C71.5647 96.2168 71.5047 96.0101 71.4113 95.8501C71.318 95.6834 71.1847 95.5601 71.0113 95.4801C70.8447 95.3934 70.6213 95.3501 70.3413 95.3501C70.028 95.3501 69.7613 95.3668 69.5413 95.4001C69.328 95.4334 69.1913 95.4634 69.1313 95.4901V100.03H68.4813V95.0401ZM80.0395 95.1701C80.1529 95.0834 80.3329 94.9934 80.5795 94.9001C80.8329 94.8001 81.1295 94.7501 81.4695 94.7501C81.8429 94.7501 82.1729 94.8168 82.4595 94.9501C82.7529 95.0834 82.9995 95.2701 83.1995 95.5101C83.3995 95.7501 83.5495 96.0368 83.6495 96.3701C83.7562 96.6968 83.8095 97.0568 83.8095 97.4501C83.8095 97.8701 83.7462 98.2468 83.6195 98.5801C83.4995 98.9134 83.3262 99.1968 83.0995 99.4301C82.8795 99.6634 82.6129 99.8434 82.2995 99.9701C81.9929 100.09 81.6495 100.15 81.2695 100.15C80.8095 100.15 80.4295 100.12 80.1295 100.06C79.8295 100 79.5829 99.9368 79.3895 99.8701V92.3901L80.0395 92.2701V95.1701ZM80.0395 99.4201C80.1395 99.4534 80.2862 99.4868 80.4795 99.5201C80.6795 99.5468 80.9395 99.5601 81.2595 99.5601C81.8195 99.5601 82.2695 99.3801 82.6095 99.0201C82.9495 98.6534 83.1195 98.1301 83.1195 97.4501C83.1195 97.1634 83.0895 96.8934 83.0295 96.6401C82.9695 96.3801 82.8729 96.1568 82.7395 95.9701C82.6062 95.7768 82.4295 95.6234 82.2095 95.5101C81.9962 95.3968 81.7295 95.3401 81.4095 95.3401C81.2562 95.3401 81.1095 95.3568 80.9695 95.3901C80.8295 95.4168 80.6995 95.4534 80.5795 95.5001C80.4595 95.5468 80.3529 95.5968 80.2595 95.6501C80.1729 95.7034 80.0995 95.7534 80.0395 95.8001V99.4201ZM86.9796 94.7601C87.193 94.7601 87.393 94.7768 87.5796 94.8101C87.773 94.8434 87.9063 94.8768 87.9796 94.9101L87.8496 95.4701C87.7963 95.4434 87.6863 95.4168 87.5196 95.3901C87.3596 95.3568 87.1463 95.3401 86.8796 95.3401C86.5996 95.3401 86.373 95.3601 86.1996 95.4001C86.033 95.4401 85.923 95.4734 85.8696 95.5001V100.03H85.2196V95.1001C85.3863 95.0268 85.6163 94.9534 85.9096 94.8801C86.203 94.8001 86.5596 94.7601 86.9796 94.7601ZM88.6499 97.4401C88.6499 96.9868 88.7132 96.5934 88.8399 96.2601C88.9732 95.9201 89.1432 95.6368 89.3499 95.4101C89.5632 95.1834 89.8032 95.0168 90.0699 94.9101C90.3432 94.7968 90.6232 94.7401 90.9099 94.7401C91.5432 94.7401 92.0465 94.9468 92.4199 95.3601C92.7999 95.7734 92.9899 96.4101 92.9899 97.2701C92.9899 97.3234 92.9865 97.3768 92.9799 97.4301C92.9799 97.4834 92.9765 97.5334 92.9699 97.5801H89.3399C89.3599 98.2134 89.5165 98.7001 89.8099 99.0401C90.1032 99.3801 90.5699 99.5501 91.2099 99.5501C91.5632 99.5501 91.8432 99.5168 92.0499 99.4501C92.2565 99.3834 92.4065 99.3268 92.4999 99.2801L92.6199 99.8401C92.5265 99.8934 92.3499 99.9568 92.0899 100.03C91.8365 100.103 91.5365 100.14 91.1899 100.14C90.7365 100.14 90.3499 100.073 90.0299 99.9401C89.7099 99.8068 89.4465 99.6201 89.2399 99.3801C89.0332 99.1401 88.8832 98.8568 88.7899 98.5301C88.6965 98.1968 88.6499 97.8334 88.6499 97.4401ZM92.3199 97.0301C92.3065 96.4901 92.1799 96.0701 91.9399 95.7701C91.6999 95.4701 91.3599 95.3201 90.9199 95.3201C90.6865 95.3201 90.4765 95.3668 90.2899 95.4601C90.1099 95.5534 89.9499 95.6801 89.8099 95.8401C89.6765 95.9934 89.5699 96.1734 89.4899 96.3801C89.4165 96.5868 89.3732 96.8034 89.3599 97.0301H92.3199ZM95.9984 99.3301C96.1384 99.0434 96.2817 98.7168 96.4284 98.3501C96.575 97.9768 96.715 97.5934 96.8484 97.2001C96.9884 96.8001 97.115 96.4001 97.2284 96.0001C97.3484 95.5934 97.4484 95.2134 97.5284 94.8601H98.1784C98.0584 95.3334 97.925 95.8001 97.7784 96.2601C97.6317 96.7201 97.475 97.1701 97.3084 97.6101C97.1484 98.0501 96.9784 98.4734 96.7984 98.8801C96.625 99.2868 96.455 99.6701 96.2884 100.03H95.6684C95.495 99.6701 95.3217 99.2868 95.1484 98.8801C94.975 98.4734 94.805 98.0501 94.6384 97.6101C94.4784 97.1701 94.325 96.7201 94.1784 96.2601C94.0317 95.8001 93.8984 95.3334 93.7784 94.8601H94.4684C94.5484 95.2134 94.645 95.5934 94.7584 96.0001C94.8784 96.4001 95.005 96.8001 95.1384 97.2001C95.2784 97.5934 95.4217 97.9768 95.5684 98.3501C95.715 98.7168 95.8584 99.0434 95.9984 99.3301ZM98.9331 97.4401C98.9331 96.9868 98.9964 96.5934 99.1231 96.2601C99.2564 95.9201 99.4264 95.6368 99.6331 95.4101C99.8464 95.1834 100.086 95.0168 100.353 94.9101C100.626 94.7968 100.906 94.7401 101.193 94.7401C101.826 94.7401 102.33 94.9468 102.703 95.3601C103.083 95.7734 103.273 96.4101 103.273 97.2701C103.273 97.3234 103.27 97.3768 103.263 97.4301C103.263 97.4834 103.26 97.5334 103.253 97.5801H99.6231C99.6431 98.2134 99.7997 98.7001 100.093 99.0401C100.386 99.3801 100.853 99.5501 101.493 99.5501C101.846 99.5501 102.126 99.5168 102.333 99.4501C102.54 99.3834 102.69 99.3268 102.783 99.2801L102.903 99.8401C102.81 99.8934 102.633 99.9568 102.373 100.03C102.12 100.103 101.82 100.14 101.473 100.14C101.02 100.14 100.633 100.073 100.313 99.9401C99.9931 99.8068 99.7297 99.6201 99.5231 99.3801C99.3164 99.1401 99.1664 98.8568 99.0731 98.5301C98.9797 98.1968 98.9331 97.8334 98.9331 97.4401ZM102.603 97.0301C102.59 96.4901 102.463 96.0701 102.223 95.7701C101.983 95.4701 101.643 95.3201 101.203 95.3201C100.97 95.3201 100.76 95.3668 100.573 95.4601C100.393 95.5534 100.233 95.6801 100.093 95.8401C99.9597 95.9934 99.8531 96.1734 99.7731 96.3801C99.6997 96.5868 99.6564 96.8034 99.6431 97.0301H102.603Z" fill="#727272"/>
<defs>
<filter id="filter0_b_42_17" x="-4" y="-4" width="175" height="101" filterUnits="userSpaceOnUse" color-interpolation-filters="sRGB">
<feFlood flood-opacity="0" result="BackgroundImageFix"/>
<feGaussianBlur in="BackgroundImage" stdDeviation="2"/>
<feComposite in2="SourceAlpha" operator="in" result="effect1_backgroundBlur_42_17"/>
<feBlend mode="normal" in="SourceGraphic" in2="effect1_backgroundBlur_42_17" result="shape"/>
</filter>
<filter id="filter1_b_42_17" x="49.7586" y="80.0345" width="66.4828" height="31.3103" filterUnits="userSpaceOnUse" color-interpolation-filters="sRGB">
<feFlood flood-opacity="0" result="BackgroundImageFix"/>
<feGaussianBlur in="BackgroundImage" stdDeviation="1.62069"/>
<feComposite in2="SourceAlpha" operator="in" result="effect1_backgroundBlur_42_17"/>
<feBlend mode="normal" in="SourceGraphic" in2="effect1_backgroundBlur_42_17" result="shape"/>
</filter>
<linearGradient id="paint0_linear_42_17" x1="83" y1="44" x2="83" y2="74" gradientUnits="userSpaceOnUse">
<stop stop-color="#727272"/>
<stop offset="1" stop-color="#393939"/>
</linearGradient>
</defs>
</svg>
