<svg width="167" height="98" viewBox="0 0 167 98" fill="none" xmlns="http://www.w3.org/2000/svg">
<g filter="url(#filter0_b_54_10)">
<rect width="167" height="93" rx="24" fill="#141414"/>
</g>
<path d="M32.5834 57.8281H39.2631C41.31 57.8281 43.1303 57.0234 44.7241 55.4141C45.8491 54.2734 46.4116 52.5781 46.4116 50.3281C46.4116 48.2344 45.8491 46.5391 44.7241 45.2422C43.3334 43.6328 41.5131 42.8281 39.2631 42.8281H32.5834V57.8281ZM27.8959 74.9375V39.7812L30.3803 38.6094H39.2631C42.8256 38.6094 45.7163 39.7422 47.935 42.0078C50.0444 44.1641 51.0991 46.9375 51.0991 50.3281C51.0991 53.7344 50.0444 56.5078 47.935 58.6484C45.7006 60.9141 42.81 62.0469 39.2631 62.0469H32.5834V72.8281L28.1303 74.9375H27.8959ZM54.0222 74V39.7812L58.4753 37.6719H58.7097V69.7344H74.7644V69.9688L72.8659 74H54.0222ZM71.4766 74.9375V49.8594C71.4766 46.4844 72.5312 43.7109 74.6406 41.5391C76.8594 39.2734 79.75 38.1406 83.3125 38.1406C86.8125 38.1406 89.7031 39.2734 91.9844 41.5391C94.0938 43.6328 95.1484 46.4062 95.1484 49.8594V72.8281L90.6953 74.9375H90.4609V58.4375H76.1641V72.8281L71.7109 74.9375H71.4766ZM76.1641 54.1719H90.4609V49.8594C90.4609 47.7656 89.8984 46.0703 88.7734 44.7734C87.3828 43.1641 85.5625 42.3594 83.3125 42.3594C81.0625 42.3594 79.2422 43.1641 77.8516 44.7734C76.7266 46.0703 76.1641 47.7656 76.1641 49.8594V54.1719ZM99.2434 74.9375V49.8594C99.2434 46.4844 100.298 43.7109 102.408 41.5391C104.626 39.2734 107.517 38.1406 111.079 38.1406C114.595 38.1406 117.486 39.2734 119.751 41.5391C121.861 43.6328 122.915 46.4062 122.915 49.8594V72.8281L118.462 74.9375H118.228V49.8594C118.228 47.7656 117.665 46.0703 116.54 44.7734C115.15 43.1641 113.329 42.3594 111.079 42.3594C108.829 42.3594 107.009 43.1641 105.618 44.7734C104.493 46.0703 103.931 47.7656 103.931 49.8594V72.8281L99.4778 74.9375H99.2434ZM128.956 74.9375V42.875H118.924V42.6406L120.823 38.6094H143.674V38.8438L141.776 42.875H133.643V72.8281L129.19 74.9375H128.956Z" fill="black"/>
<path d="M53.1805 30C52.9272 29.32 52.6872 28.6667 52.4605 28.04C52.2339 27.4133 52.0139 26.8 51.8005 26.2H45.0605C44.8339 26.8 44.6072 27.4133 44.3805 28.04C44.1539 28.6667 43.9205 29.32 43.6805 30H42.2605C42.7939 28.56 43.2939 27.22 43.7605 25.98C44.2272 24.7267 44.6805 23.5467 45.1205 22.44C45.5739 21.32 46.0205 20.2467 46.4605 19.22C46.9005 18.1933 47.3672 17.1667 47.8605 16.14H49.0605C49.5539 17.1667 50.0205 18.1933 50.4605 19.22C50.9005 20.2467 51.3405 21.32 51.7805 22.44C52.2339 23.5467 52.6939 24.7267 53.1605 25.98C53.6272 27.22 54.1339 28.56 54.6805 30H53.1805ZM48.4205 17.7C47.9139 18.8467 47.4205 20.0133 46.9405 21.2C46.4739 22.3867 45.9872 23.6667 45.4805 25.04H51.3805C50.8739 23.6667 50.3805 22.3867 49.9005 21.2C49.4205 20.0133 48.9272 18.8467 48.4205 17.7ZM63.1568 23.44H64.5168V29.62C64.2635 29.7267 63.7635 29.86 63.0168 30.02C62.2835 30.1933 61.3768 30.28 60.2968 30.28C59.3901 30.28 58.5501 30.12 57.7768 29.8C57.0035 29.48 56.3301 29.02 55.7568 28.42C55.1968 27.8067 54.7568 27.0533 54.4368 26.16C54.1168 25.2533 53.9568 24.22 53.9568 23.06C53.9568 21.9 54.1301 20.8733 54.4768 19.98C54.8235 19.0733 55.2901 18.32 55.8768 17.72C56.4768 17.1067 57.1701 16.64 57.9568 16.32C58.7435 16 59.5835 15.84 60.4768 15.84C61.5035 15.84 62.3501 15.9533 63.0168 16.18C63.6835 16.3933 64.1701 16.6 64.4768 16.8L64.0168 17.96C63.6435 17.6933 63.1368 17.48 62.4968 17.32C61.8568 17.1467 61.1635 17.06 60.4168 17.06C59.7235 17.06 59.0701 17.1867 58.4568 17.44C57.8435 17.6933 57.3101 18.0733 56.8568 18.58C56.4035 19.0867 56.0435 19.7133 55.7768 20.46C55.5235 21.2067 55.3968 22.0733 55.3968 23.06C55.3968 23.98 55.5035 24.8133 55.7168 25.56C55.9301 26.2933 56.2501 26.9267 56.6768 27.46C57.1168 27.98 57.6568 28.38 58.2968 28.66C58.9368 28.94 59.6768 29.08 60.5168 29.08C61.1968 29.08 61.7635 29.0467 62.2168 28.98C62.6835 28.9 62.9968 28.8267 63.1568 28.76V23.44ZM74.9209 20.3C74.9209 21.34 74.6475 22.16 74.1009 22.76C73.5542 23.36 72.8342 23.7933 71.9409 24.06C72.1542 24.3267 72.4275 24.6867 72.7609 25.14C73.1075 25.5933 73.4609 26.0933 73.8209 26.64C74.1809 27.1733 74.5342 27.7333 74.8809 28.32C75.2275 28.9067 75.5209 29.4667 75.7609 30H74.3009C74.0209 29.4667 73.7142 28.9333 73.3809 28.4C73.0609 27.8667 72.7275 27.3533 72.3809 26.86C72.0475 26.3533 71.7209 25.8867 71.4009 25.46C71.0809 25.0333 70.8009 24.66 70.5609 24.34C70.1342 24.38 69.7075 24.4 69.2809 24.4H67.0409V30H65.6809V16.4C66.1609 16.2667 66.7209 16.1733 67.3609 16.12C68.0142 16.0533 68.6142 16.02 69.1609 16.02C71.0675 16.02 72.5009 16.38 73.4609 17.1C74.4342 17.82 74.9209 18.8867 74.9209 20.3ZM69.3209 17.2C68.8142 17.2 68.3675 17.22 67.9809 17.26C67.6075 17.2867 67.2942 17.3133 67.0409 17.34V23.24H68.9209C69.5475 23.24 70.1409 23.2133 70.7009 23.16C71.2609 23.0933 71.7475 22.96 72.1609 22.76C72.5742 22.5467 72.9009 22.2467 73.1409 21.86C73.3809 21.4733 73.5009 20.9467 73.5009 20.28C73.5009 19.6667 73.3809 19.16 73.1409 18.76C72.9009 18.36 72.5875 18.0467 72.2009 17.82C71.8142 17.58 71.3675 17.42 70.8609 17.34C70.3675 17.2467 69.8542 17.2 69.3209 17.2ZM85.9305 30C85.6772 29.32 85.4372 28.6667 85.2105 28.04C84.9839 27.4133 84.7639 26.8 84.5505 26.2H77.8105C77.5839 26.8 77.3572 27.4133 77.1305 28.04C76.9039 28.6667 76.6705 29.32 76.4305 30H75.0105C75.5439 28.56 76.0439 27.22 76.5105 25.98C76.9772 24.7267 77.4305 23.5467 77.8705 22.44C78.3239 21.32 78.7705 20.2467 79.2105 19.22C79.6505 18.1933 80.1172 17.1667 80.6105 16.14H81.8105C82.3039 17.1667 82.7705 18.1933 83.2105 19.22C83.6505 20.2467 84.0905 21.32 84.5305 22.44C84.9839 23.5467 85.4439 24.7267 85.9105 25.98C86.3772 27.22 86.8839 28.56 87.4305 30H85.9305ZM81.1705 17.7C80.6639 18.8467 80.1705 20.0133 79.6905 21.2C79.2239 22.3867 78.7372 23.6667 78.2305 25.04H84.1305C83.6239 23.6667 83.1305 22.3867 82.6505 21.2C82.1705 20.0133 81.6772 18.8467 81.1705 17.7ZM96.663 20.3C96.663 21.34 96.3897 22.16 95.843 22.76C95.2964 23.36 94.5764 23.7933 93.683 24.06C93.8964 24.3267 94.1697 24.6867 94.503 25.14C94.8497 25.5933 95.203 26.0933 95.563 26.64C95.923 27.1733 96.2764 27.7333 96.623 28.32C96.9697 28.9067 97.263 29.4667 97.503 30H96.043C95.763 29.4667 95.4564 28.9333 95.123 28.4C94.803 27.8667 94.4697 27.3533 94.123 26.86C93.7897 26.3533 93.463 25.8867 93.143 25.46C92.823 25.0333 92.543 24.66 92.303 24.34C91.8764 24.38 91.4497 24.4 91.023 24.4H88.783V30H87.423V16.4C87.903 16.2667 88.463 16.1733 89.103 16.12C89.7564 16.0533 90.3564 16.02 90.903 16.02C92.8097 16.02 94.243 16.38 95.203 17.1C96.1764 17.82 96.663 18.8867 96.663 20.3ZM91.063 17.2C90.5564 17.2 90.1097 17.22 89.723 17.26C89.3497 17.2867 89.0364 17.3133 88.783 17.34V23.24H90.663C91.2897 23.24 91.883 23.2133 92.443 23.16C93.003 23.0933 93.4897 22.96 93.903 22.76C94.3164 22.5467 94.643 22.2467 94.883 21.86C95.123 21.4733 95.243 20.9467 95.243 20.28C95.243 19.6667 95.123 19.16 94.883 18.76C94.643 18.36 94.3297 18.0467 93.943 17.82C93.5564 17.58 93.1097 17.42 92.603 17.34C92.1097 17.2467 91.5964 17.2 91.063 17.2ZM97.7863 16.14H99.1463V30H97.7863V16.14ZM110.067 30C109.814 29.32 109.574 28.6667 109.347 28.04C109.121 27.4133 108.901 26.8 108.687 26.2H101.947C101.721 26.8 101.494 27.4133 101.267 28.04C101.041 28.6667 100.807 29.32 100.567 30H99.1473C99.6806 28.56 100.181 27.22 100.647 25.98C101.114 24.7267 101.567 23.5467 102.007 22.44C102.461 21.32 102.907 20.2467 103.347 19.22C103.787 18.1933 104.254 17.1667 104.747 16.14H105.947C106.441 17.1667 106.907 18.1933 107.347 19.22C107.787 20.2467 108.227 21.32 108.667 22.44C109.121 23.5467 109.581 24.7267 110.047 25.98C110.514 27.22 111.021 28.56 111.567 30H110.067ZM105.307 17.7C104.801 18.8467 104.307 20.0133 103.827 21.2C103.361 22.3867 102.874 23.6667 102.367 25.04H108.267C107.761 23.6667 107.267 22.3867 106.787 21.2C106.307 20.0133 105.814 18.8467 105.307 17.7ZM121 30C120.746 29.5333 120.42 28.9867 120.02 28.36C119.633 27.7333 119.206 27.0667 118.74 26.36C118.273 25.64 117.78 24.9067 117.26 24.16C116.74 23.4 116.22 22.6667 115.7 21.96C115.193 21.24 114.693 20.5667 114.2 19.94C113.72 19.3133 113.286 18.7733 112.9 18.32V30H111.56V16.14H112.64C113.32 16.9 114.046 17.78 114.82 18.78C115.606 19.7667 116.373 20.78 117.12 21.82C117.866 22.8467 118.56 23.8533 119.2 24.84C119.853 25.8267 120.386 26.6867 120.8 27.42V16.14H122.14V30H121Z" fill="#2E2E2E"/>
<defs>
<filter id="filter0_b_54_10" x="-4" y="-4" width="175" height="101" filterUnits="userSpaceOnUse" color-interpolation-filters="sRGB">
<feFlood flood-opacity="0" result="BackgroundImageFix"/>
<feGaussianBlur in="BackgroundImage" stdDeviation="2"/>
<feComposite in2="SourceAlpha" operator="in" result="effect1_backgroundBlur_54_10"/>
<feBlend mode="normal" in="SourceGraphic" in2="effect1_backgroundBlur_54_10" result="shape"/>
</filter>
</defs>
</svg>
