<svg width="167" height="109" viewBox="0 0 167 109" fill="none" xmlns="http://www.w3.org/2000/svg">
<g filter="url(#filter0_b_42_3)">
<rect width="167" height="93" rx="24" fill="black"/>
</g>
<path d="M59.7475 37.6719V62.75C59.7475 66.125 58.6928 68.8984 56.5834 71.0703C54.3647 73.3359 51.4741 74.4688 47.9116 74.4688C44.6928 74.4688 41.9506 73.3359 39.685 71.0703C39.1225 70.5078 38.7006 69.9609 38.4194 69.4297C38.06 69.9766 37.6225 70.5 37.1069 71C34.7475 73.3125 32.0209 74.4688 28.9272 74.4688C25.4272 74.4688 22.5366 73.3359 20.2553 71.0703C18.1459 68.9766 17.0912 66.2031 17.0912 62.75V39.7812L21.5444 37.6719H21.7787V62.75C21.7787 64.8438 22.3412 66.5391 23.4662 67.8359C24.8569 69.4453 26.6772 70.25 28.9272 70.25C31.1772 70.25 32.9975 69.4453 34.3881 67.8359C35.5131 66.5391 36.0756 64.8438 36.0756 62.75V39.7812L40.5287 37.6719H40.7631V62.75C40.7631 64.8438 41.3256 66.5391 42.4506 67.8359C43.8412 69.4453 45.6616 70.25 47.9116 70.25C50.1616 70.25 51.9819 69.4453 53.3725 67.8359C54.4975 66.5391 55.06 64.8438 55.06 62.75V39.7812L59.5131 37.6719H59.7475ZM63.8425 74.9375V49.8594C63.8425 46.4844 64.8972 43.7109 67.0066 41.5391C69.2253 39.2734 72.1159 38.1406 75.6784 38.1406C79.1784 38.1406 82.0691 39.2734 84.3503 41.5391C86.4597 43.6328 87.5144 46.4062 87.5144 49.8594V72.8281L83.0612 74.9375H82.8269V58.4375H68.53V72.8281L64.0769 74.9375H63.8425ZM68.53 54.1719H82.8269V49.8594C82.8269 47.7656 82.2644 46.0703 81.1394 44.7734C79.7487 43.1641 77.9284 42.3594 75.6784 42.3594C73.4284 42.3594 71.6081 43.1641 70.2175 44.7734C69.0925 46.0703 68.53 47.7656 68.53 49.8594V54.1719ZM93.5547 74.9375V42.875H83.5234V42.6406L85.4219 38.6094H108.273V38.8438L106.375 42.875H98.2422V72.8281L93.7891 74.9375H93.5547ZM105.454 74V39.7812L107.939 38.6094H122.798V38.8438L120.9 42.875H110.142V54.1719H122.798V54.4062L120.9 58.4375H110.142V69.7344H126.712V69.9688L124.814 74H105.454ZM127.315 74.9375V39.7812L129.799 38.6094H138.682C142.245 38.6094 145.135 39.7422 147.354 42.0078C149.463 44.1641 150.518 46.9375 150.518 50.3281C150.518 53.7344 149.463 56.5078 147.354 58.6484C146.104 59.9141 144.643 60.8281 142.971 61.3906L151.081 72.9922L146.956 74.9375H146.721L137.698 62.0469H132.002V72.8281L127.549 74.9375H127.315ZM132.002 57.8281H138.682C140.729 57.8281 142.549 57.0234 144.143 55.4141C145.268 54.2734 145.831 52.5781 145.831 50.3281C145.831 48.2344 145.268 46.5391 144.143 45.2422C142.752 43.6328 140.932 42.8281 138.682 42.8281H132.002V57.8281Z" fill="url(#paint0_linear_42_3)"/>
<path d="M53.1805 30C52.9272 29.32 52.6872 28.6667 52.4605 28.04C52.2339 27.4133 52.0139 26.8 51.8005 26.2H45.0605C44.8339 26.8 44.6072 27.4133 44.3805 28.04C44.1539 28.6667 43.9205 29.32 43.6805 30H42.2605C42.7939 28.56 43.2939 27.22 43.7605 25.98C44.2272 24.7267 44.6805 23.5467 45.1205 22.44C45.5739 21.32 46.0205 20.2467 46.4605 19.22C46.9005 18.1933 47.3672 17.1667 47.8605 16.14H49.0605C49.5539 17.1667 50.0205 18.1933 50.4605 19.22C50.9005 20.2467 51.3405 21.32 51.7805 22.44C52.2339 23.5467 52.6939 24.7267 53.1605 25.98C53.6272 27.22 54.1339 28.56 54.6805 30H53.1805ZM48.4205 17.7C47.9139 18.8467 47.4205 20.0133 46.9405 21.2C46.4739 22.3867 45.9872 23.6667 45.4805 25.04H51.3805C50.8739 23.6667 50.3805 22.3867 49.9005 21.2C49.4205 20.0133 48.9272 18.8467 48.4205 17.7ZM63.1568 23.44H64.5168V29.62C64.2635 29.7267 63.7635 29.86 63.0168 30.02C62.2835 30.1933 61.3768 30.28 60.2968 30.28C59.3901 30.28 58.5501 30.12 57.7768 29.8C57.0035 29.48 56.3301 29.02 55.7568 28.42C55.1968 27.8067 54.7568 27.0533 54.4368 26.16C54.1168 25.2533 53.9568 24.22 53.9568 23.06C53.9568 21.9 54.1301 20.8733 54.4768 19.98C54.8235 19.0733 55.2901 18.32 55.8768 17.72C56.4768 17.1067 57.1701 16.64 57.9568 16.32C58.7435 16 59.5835 15.84 60.4768 15.84C61.5035 15.84 62.3501 15.9533 63.0168 16.18C63.6835 16.3933 64.1701 16.6 64.4768 16.8L64.0168 17.96C63.6435 17.6933 63.1368 17.48 62.4968 17.32C61.8568 17.1467 61.1635 17.06 60.4168 17.06C59.7235 17.06 59.0701 17.1867 58.4568 17.44C57.8435 17.6933 57.3101 18.0733 56.8568 18.58C56.4035 19.0867 56.0435 19.7133 55.7768 20.46C55.5235 21.2067 55.3968 22.0733 55.3968 23.06C55.3968 23.98 55.5035 24.8133 55.7168 25.56C55.9301 26.2933 56.2501 26.9267 56.6768 27.46C57.1168 27.98 57.6568 28.38 58.2968 28.66C58.9368 28.94 59.6768 29.08 60.5168 29.08C61.1968 29.08 61.7635 29.0467 62.2168 28.98C62.6835 28.9 62.9968 28.8267 63.1568 28.76V23.44ZM74.9209 20.3C74.9209 21.34 74.6475 22.16 74.1009 22.76C73.5542 23.36 72.8342 23.7933 71.9409 24.06C72.1542 24.3267 72.4275 24.6867 72.7609 25.14C73.1075 25.5933 73.4609 26.0933 73.8209 26.64C74.1809 27.1733 74.5342 27.7333 74.8809 28.32C75.2275 28.9067 75.5209 29.4667 75.7609 30H74.3009C74.0209 29.4667 73.7142 28.9333 73.3809 28.4C73.0609 27.8667 72.7275 27.3533 72.3809 26.86C72.0475 26.3533 71.7209 25.8867 71.4009 25.46C71.0809 25.0333 70.8009 24.66 70.5609 24.34C70.1342 24.38 69.7075 24.4 69.2809 24.4H67.0409V30H65.6809V16.4C66.1609 16.2667 66.7209 16.1733 67.3609 16.12C68.0142 16.0533 68.6142 16.02 69.1609 16.02C71.0675 16.02 72.5009 16.38 73.4609 17.1C74.4342 17.82 74.9209 18.8867 74.9209 20.3ZM69.3209 17.2C68.8142 17.2 68.3675 17.22 67.9809 17.26C67.6075 17.2867 67.2942 17.3133 67.0409 17.34V23.24H68.9209C69.5475 23.24 70.1409 23.2133 70.7009 23.16C71.2609 23.0933 71.7475 22.96 72.1609 22.76C72.5742 22.5467 72.9009 22.2467 73.1409 21.86C73.3809 21.4733 73.5009 20.9467 73.5009 20.28C73.5009 19.6667 73.3809 19.16 73.1409 18.76C72.9009 18.36 72.5875 18.0467 72.2009 17.82C71.8142 17.58 71.3675 17.42 70.8609 17.34C70.3675 17.2467 69.8542 17.2 69.3209 17.2ZM85.9305 30C85.6772 29.32 85.4372 28.6667 85.2105 28.04C84.9839 27.4133 84.7639 26.8 84.5505 26.2H77.8105C77.5839 26.8 77.3572 27.4133 77.1305 28.04C76.9039 28.6667 76.6705 29.32 76.4305 30H75.0105C75.5439 28.56 76.0439 27.22 76.5105 25.98C76.9772 24.7267 77.4305 23.5467 77.8705 22.44C78.3239 21.32 78.7705 20.2467 79.2105 19.22C79.6505 18.1933 80.1172 17.1667 80.6105 16.14H81.8105C82.3039 17.1667 82.7705 18.1933 83.2105 19.22C83.6505 20.2467 84.0905 21.32 84.5305 22.44C84.9839 23.5467 85.4439 24.7267 85.9105 25.98C86.3772 27.22 86.8839 28.56 87.4305 30H85.9305ZM81.1705 17.7C80.6639 18.8467 80.1705 20.0133 79.6905 21.2C79.2239 22.3867 78.7372 23.6667 78.2305 25.04H84.1305C83.6239 23.6667 83.1305 22.3867 82.6505 21.2C82.1705 20.0133 81.6772 18.8467 81.1705 17.7ZM96.663 20.3C96.663 21.34 96.3897 22.16 95.843 22.76C95.2964 23.36 94.5764 23.7933 93.683 24.06C93.8964 24.3267 94.1697 24.6867 94.503 25.14C94.8497 25.5933 95.203 26.0933 95.563 26.64C95.923 27.1733 96.2764 27.7333 96.623 28.32C96.9697 28.9067 97.263 29.4667 97.503 30H96.043C95.763 29.4667 95.4564 28.9333 95.123 28.4C94.803 27.8667 94.4697 27.3533 94.123 26.86C93.7897 26.3533 93.463 25.8867 93.143 25.46C92.823 25.0333 92.543 24.66 92.303 24.34C91.8764 24.38 91.4497 24.4 91.023 24.4H88.783V30H87.423V16.4C87.903 16.2667 88.463 16.1733 89.103 16.12C89.7564 16.0533 90.3564 16.02 90.903 16.02C92.8097 16.02 94.243 16.38 95.203 17.1C96.1764 17.82 96.663 18.8867 96.663 20.3ZM91.063 17.2C90.5564 17.2 90.1097 17.22 89.723 17.26C89.3497 17.2867 89.0364 17.3133 88.783 17.34V23.24H90.663C91.2897 23.24 91.883 23.2133 92.443 23.16C93.003 23.0933 93.4897 22.96 93.903 22.76C94.3164 22.5467 94.643 22.2467 94.883 21.86C95.123 21.4733 95.243 20.9467 95.243 20.28C95.243 19.6667 95.123 19.16 94.883 18.76C94.643 18.36 94.3297 18.0467 93.943 17.82C93.5564 17.58 93.1097 17.42 92.603 17.34C92.1097 17.2467 91.5964 17.2 91.063 17.2ZM97.7863 16.14H99.1463V30H97.7863V16.14ZM110.067 30C109.814 29.32 109.574 28.6667 109.347 28.04C109.121 27.4133 108.901 26.8 108.687 26.2H101.947C101.721 26.8 101.494 27.4133 101.267 28.04C101.041 28.6667 100.807 29.32 100.567 30H99.1473C99.6806 28.56 100.181 27.22 100.647 25.98C101.114 24.7267 101.567 23.5467 102.007 22.44C102.461 21.32 102.907 20.2467 103.347 19.22C103.787 18.1933 104.254 17.1667 104.747 16.14H105.947C106.441 17.1667 106.907 18.1933 107.347 19.22C107.787 20.2467 108.227 21.32 108.667 22.44C109.121 23.5467 109.581 24.7267 110.047 25.98C110.514 27.22 111.021 28.56 111.567 30H110.067ZM105.307 17.7C104.801 18.8467 104.307 20.0133 103.827 21.2C103.361 22.3867 102.874 23.6667 102.367 25.04H108.267C107.761 23.6667 107.267 22.3867 106.787 21.2C106.307 20.0133 105.814 18.8467 105.307 17.7ZM121 30C120.746 29.5333 120.42 28.9867 120.02 28.36C119.633 27.7333 119.206 27.0667 118.74 26.36C118.273 25.64 117.78 24.9067 117.26 24.16C116.74 23.4 116.22 22.6667 115.7 21.96C115.193 21.24 114.693 20.5667 114.2 19.94C113.72 19.3133 113.286 18.7733 112.9 18.32V30H111.56V16.14H112.64C113.32 16.9 114.046 17.78 114.82 18.78C115.606 19.7667 116.373 20.78 117.12 21.82C117.866 22.8467 118.56 23.8533 119.2 24.84C119.853 25.8267 120.386 26.6867 120.8 27.42V16.14H122.14V30H121Z" fill="white"/>
<g filter="url(#filter1_b_42_3)">
<rect x="53" y="83.2759" width="60" height="24.8276" rx="9.72414" fill="#1F1F1F"/>
<rect x="53.4052" y="83.6811" width="59.1897" height="24.0172" rx="9.31897" stroke="#727272" stroke-width="0.810345"/>
</g>
<path d="M60.887 97.4001C60.887 97.9334 61.0137 98.3534 61.267 98.6601C61.5203 98.9601 61.8703 99.1101 62.317 99.1101C62.5103 99.1101 62.6737 99.1034 62.807 99.0901C62.947 99.0701 63.0603 99.0501 63.147 99.0301V96.0301C63.0403 95.9568 62.897 95.8901 62.717 95.8301C62.5437 95.7634 62.357 95.7301 62.157 95.7301C61.717 95.7301 61.3937 95.8801 61.187 96.1801C60.987 96.4801 60.887 96.8868 60.887 97.4001ZM64.357 99.8701C64.117 99.9434 63.8137 100.01 63.447 100.07C63.087 100.13 62.707 100.16 62.307 100.16C61.8937 100.16 61.5237 100.097 61.197 99.9701C60.8703 99.8434 60.5903 99.6634 60.357 99.4301C60.1303 99.1901 59.9537 98.9034 59.827 98.5701C59.707 98.2301 59.647 97.8501 59.647 97.4301C59.647 97.0168 59.697 96.6434 59.797 96.3101C59.9037 95.9701 60.057 95.6801 60.257 95.4401C60.457 95.2001 60.7003 95.0168 60.987 94.8901C61.2737 94.7568 61.6037 94.6901 61.977 94.6901C62.2303 94.6901 62.4537 94.7201 62.647 94.7801C62.8403 94.8401 63.007 94.9068 63.147 94.9801V92.4701L64.357 92.2701V99.8701ZM67.114 100.03H65.904V94.8001H67.114V100.03ZM67.244 93.2701C67.244 93.4968 67.1707 93.6768 67.024 93.8101C66.8774 93.9434 66.704 94.0101 66.504 94.0101C66.2974 94.0101 66.1207 93.9434 65.974 93.8101C65.8274 93.6768 65.754 93.4968 65.754 93.2701C65.754 93.0368 65.8274 92.8534 65.974 92.7201C66.1207 92.5868 66.2974 92.5201 66.504 92.5201C66.704 92.5201 66.8774 92.5868 67.024 92.7201C67.1707 92.8534 67.244 93.0368 67.244 93.2701ZM69.9677 99.1601C70.2877 99.1601 70.521 99.1234 70.6677 99.0501C70.8144 98.9701 70.8877 98.8368 70.8877 98.6501C70.8877 98.4768 70.8077 98.3334 70.6477 98.2201C70.4944 98.1068 70.2377 97.9834 69.8777 97.8501C69.6577 97.7701 69.4544 97.6868 69.2677 97.6001C69.0877 97.5068 68.931 97.4001 68.7977 97.2801C68.6644 97.1601 68.5577 97.0168 68.4777 96.8501C68.4044 96.6768 68.3677 96.4668 68.3677 96.2201C68.3677 95.7401 68.5444 95.3634 68.8977 95.0901C69.251 94.8101 69.731 94.6701 70.3377 94.6701C70.6444 94.6701 70.9377 94.7001 71.2177 94.7601C71.4977 94.8134 71.7077 94.8668 71.8477 94.9201L71.6277 95.9001C71.4944 95.8401 71.3244 95.7868 71.1177 95.7401C70.911 95.6868 70.671 95.6601 70.3977 95.6601C70.151 95.6601 69.951 95.7034 69.7977 95.7901C69.6444 95.8701 69.5677 95.9968 69.5677 96.1701C69.5677 96.2568 69.581 96.3334 69.6077 96.4001C69.641 96.4668 69.6944 96.5301 69.7677 96.5901C69.841 96.6434 69.9377 96.7001 70.0577 96.7601C70.1777 96.8134 70.3244 96.8701 70.4977 96.9301C70.7844 97.0368 71.0277 97.1434 71.2277 97.2501C71.4277 97.3501 71.591 97.4668 71.7177 97.6001C71.851 97.7268 71.9477 97.8734 72.0077 98.0401C72.0677 98.2068 72.0977 98.4068 72.0977 98.6401C72.0977 99.1401 71.911 99.5201 71.5377 99.7801C71.171 100.033 70.6444 100.16 69.9577 100.16C69.4977 100.16 69.1277 100.12 68.8477 100.04C68.5677 99.9668 68.371 99.9068 68.2577 99.8601L68.4677 98.8501C68.6477 98.9234 68.861 98.9934 69.1077 99.0601C69.361 99.1268 69.6477 99.1601 69.9677 99.1601ZM76.698 97.4401C76.698 96.9001 76.5747 96.4801 76.328 96.1801C76.088 95.8801 75.698 95.7301 75.158 95.7301C75.0447 95.7301 74.9247 95.7368 74.798 95.7501C74.678 95.7568 74.558 95.7768 74.438 95.8101V98.8001C74.5447 98.8734 74.6847 98.9434 74.858 99.0101C75.038 99.0701 75.228 99.1001 75.428 99.1001C75.868 99.1001 76.188 98.9501 76.388 98.6501C76.5947 98.3501 76.698 97.9468 76.698 97.4401ZM77.938 97.4201C77.938 97.8201 77.8847 98.1868 77.778 98.5201C77.678 98.8534 77.5313 99.1401 77.338 99.3801C77.1447 99.6201 76.9013 99.8068 76.608 99.9401C76.3213 100.073 75.9947 100.14 75.628 100.14C75.3813 100.14 75.1547 100.11 74.948 100.05C74.7413 99.9901 74.5713 99.9234 74.438 99.8501V101.88H73.228V94.9701C73.4747 94.9034 73.778 94.8401 74.138 94.7801C74.498 94.7201 74.878 94.6901 75.278 94.6901C75.6913 94.6901 76.0613 94.7534 76.388 94.8801C76.7147 95.0068 76.9913 95.1901 77.218 95.4301C77.4513 95.6634 77.628 95.9501 77.748 96.2901C77.8747 96.6234 77.938 97.0001 77.938 97.4201ZM83.915 97.4101C83.915 97.8234 83.855 98.2001 83.735 98.5401C83.615 98.8801 83.445 99.1701 83.225 99.4101C83.005 99.6501 82.7384 99.8368 82.425 99.9701C82.1184 100.103 81.7784 100.17 81.405 100.17C81.0317 100.17 80.6917 100.103 80.385 99.9701C80.0784 99.8368 79.815 99.6501 79.595 99.4101C79.375 99.1701 79.2017 98.8801 79.075 98.5401C78.955 98.2001 78.895 97.8234 78.895 97.4101C78.895 96.9968 78.955 96.6234 79.075 96.2901C79.2017 95.9501 79.375 95.6601 79.595 95.4201C79.8217 95.1801 80.0884 94.9968 80.395 94.8701C80.7017 94.7368 81.0384 94.6701 81.405 94.6701C81.7717 94.6701 82.1084 94.7368 82.415 94.8701C82.7284 94.9968 82.995 95.1801 83.215 95.4201C83.435 95.6601 83.605 95.9501 83.725 96.2901C83.8517 96.6234 83.915 96.9968 83.915 97.4101ZM82.675 97.4101C82.675 96.8901 82.5617 96.4801 82.335 96.1801C82.115 95.8734 81.805 95.7201 81.405 95.7201C81.005 95.7201 80.6917 95.8734 80.465 96.1801C80.245 96.4801 80.135 96.8901 80.135 97.4101C80.135 97.9368 80.245 98.3534 80.465 98.6601C80.6917 98.9668 81.005 99.1201 81.405 99.1201C81.805 99.1201 82.115 98.9668 82.335 98.6601C82.5617 98.3534 82.675 97.9368 82.675 97.4101ZM85.1616 94.9701C85.3949 94.9034 85.6983 94.8401 86.0716 94.7801C86.4449 94.7201 86.8583 94.6901 87.3116 94.6901C87.7383 94.6901 88.0949 94.7501 88.3816 94.8701C88.6683 94.9834 88.8949 95.1468 89.0616 95.3601C89.2349 95.5668 89.3549 95.8201 89.4216 96.1201C89.4949 96.4134 89.5316 96.7368 89.5316 97.0901V100.03H88.3216V97.2801C88.3216 97.0001 88.3016 96.7634 88.2616 96.5701C88.2283 96.3701 88.1683 96.2101 88.0816 96.0901C88.0016 95.9634 87.8883 95.8734 87.7416 95.8201C87.6016 95.7601 87.4283 95.7301 87.2216 95.7301C87.0683 95.7301 86.9083 95.7401 86.7416 95.7601C86.5749 95.7801 86.4516 95.7968 86.3716 95.8101V100.03H85.1616V94.9701ZM92.2312 100.03H91.0212V94.8001H92.2312V100.03ZM93.0612 92.6601L91.4312 94.2401L90.8312 93.7001L92.3012 91.9501L93.0612 92.6601ZM95.1149 100.03C94.7815 99.3434 94.4382 98.5568 94.0849 97.6701C93.7382 96.7768 93.4215 95.8201 93.1349 94.8001H94.4249C94.4982 95.0934 94.5815 95.4101 94.6749 95.7501C94.7749 96.0834 94.8782 96.4201 94.9849 96.7601C95.0982 97.0934 95.2115 97.4201 95.3249 97.7401C95.4449 98.0534 95.5549 98.3368 95.6549 98.5901C95.7549 98.3368 95.8615 98.0534 95.9749 97.7401C96.0882 97.4201 96.1982 97.0934 96.3049 96.7601C96.4182 96.4201 96.5249 96.0834 96.6249 95.7501C96.7249 95.4101 96.8115 95.0934 96.8849 94.8001H98.1349C97.8482 95.8201 97.5282 96.7768 97.1749 97.6701C96.8282 98.5568 96.4882 99.3434 96.1549 100.03H95.1149ZM98.6314 97.4401C98.6314 96.9801 98.698 96.5768 98.8314 96.2301C98.9714 95.8834 99.1547 95.5968 99.3814 95.3701C99.608 95.1368 99.868 94.9634 100.161 94.8501C100.455 94.7301 100.755 94.6701 101.061 94.6701C101.781 94.6701 102.341 94.8934 102.741 95.3401C103.148 95.7868 103.351 96.4534 103.351 97.3401C103.351 97.4068 103.348 97.4834 103.341 97.5701C103.341 97.6501 103.338 97.7234 103.331 97.7901H99.8814C99.9147 98.2101 100.061 98.5368 100.321 98.7701C100.588 98.9968 100.971 99.1101 101.471 99.1101C101.765 99.1101 102.031 99.0834 102.271 99.0301C102.518 98.9768 102.711 98.9201 102.851 98.8601L103.011 99.8501C102.945 99.8834 102.851 99.9201 102.731 99.9601C102.618 99.9934 102.485 100.023 102.331 100.05C102.185 100.083 102.025 100.11 101.851 100.13C101.678 100.15 101.501 100.16 101.321 100.16C100.861 100.16 100.461 100.093 100.121 99.9601C99.7814 99.8201 99.5014 99.6301 99.2814 99.3901C99.0614 99.1434 98.898 98.8568 98.7914 98.5301C98.6847 98.1968 98.6314 97.8334 98.6314 97.4401ZM102.141 96.9001C102.141 96.7334 102.118 96.5768 102.071 96.4301C102.025 96.2768 101.955 96.1468 101.861 96.0401C101.775 95.9268 101.665 95.8401 101.531 95.7801C101.405 95.7134 101.251 95.6801 101.071 95.6801C100.885 95.6801 100.721 95.7168 100.581 95.7901C100.441 95.8568 100.321 95.9468 100.221 96.0601C100.128 96.1734 100.055 96.3034 100.001 96.4501C99.948 96.5968 99.9114 96.7468 99.8914 96.9001H102.141ZM106.454 100.13C106.094 100.123 105.794 100.083 105.554 100.01C105.321 99.9368 105.134 99.8334 104.994 99.7001C104.854 99.5601 104.754 99.3901 104.694 99.1901C104.641 98.9834 104.614 98.7501 104.614 98.4901V92.4701L105.824 92.2701V98.2601C105.824 98.4068 105.834 98.5301 105.854 98.6301C105.881 98.7301 105.924 98.8168 105.984 98.8901C106.044 98.9568 106.124 99.0101 106.224 99.0501C106.331 99.0834 106.464 99.1101 106.624 99.1301L106.454 100.13Z" fill="#43A140"/>
<defs>
<filter id="filter0_b_42_3" x="-4" y="-4" width="175" height="101" filterUnits="userSpaceOnUse" color-interpolation-filters="sRGB">
<feFlood flood-opacity="0" result="BackgroundImageFix"/>
<feGaussianBlur in="BackgroundImage" stdDeviation="2"/>
<feComposite in2="SourceAlpha" operator="in" result="effect1_backgroundBlur_42_3"/>
<feBlend mode="normal" in="SourceGraphic" in2="effect1_backgroundBlur_42_3" result="shape"/>
</filter>
<filter id="filter1_b_42_3" x="49.7586" y="80.0345" width="66.4828" height="31.3103" filterUnits="userSpaceOnUse" color-interpolation-filters="sRGB">
<feFlood flood-opacity="0" result="BackgroundImageFix"/>
<feGaussianBlur in="BackgroundImage" stdDeviation="1.62069"/>
<feComposite in2="SourceAlpha" operator="in" result="effect1_backgroundBlur_42_3"/>
<feBlend mode="normal" in="SourceGraphic" in2="effect1_backgroundBlur_42_3" result="shape"/>
</filter>
<linearGradient id="paint0_linear_42_3" x1="83.5" y1="44" x2="83.5" y2="89.5" gradientUnits="userSpaceOnUse">
<stop stop-color="#02B9AE"/>
<stop offset="1" stop-color="#3F66A0"/>
</linearGradient>
</defs>
</svg>
