<svg width="200" height="77" viewBox="0 0 200 77" fill="none" xmlns="http://www.w3.org/2000/svg">
<path d="M57.7102 49.125V15.375L63.6477 12.5625H63.9602V28.6562C65.5435 26.8854 67.7831 26 70.679 26C74.2831 26 77.3144 27.1771 79.7727 29.5312C82.356 32.0312 83.6477 35.0208 83.6477 38.5V49.125C83.6477 52.5625 82.356 55.5521 79.7727 58.0938C77.356 60.4479 74.3248 61.625 70.679 61.625C67.0748 61.625 64.0435 60.4479 61.5852 58.0938C59.0019 55.5938 57.7102 52.6042 57.7102 49.125ZM63.9602 49.125C63.9602 51.5208 64.606 53.2812 65.8977 54.4062C67.2102 55.5104 68.804 56.0625 70.679 56.0625C72.554 56.0625 74.1373 55.5104 75.429 54.4062C76.7415 53.2812 77.3977 51.5208 77.3977 49.125V38.5C77.3977 36.1042 76.7415 34.3542 75.429 33.25C74.1373 32.125 72.554 31.5625 70.679 31.5625C68.804 31.5625 67.2102 32.125 65.8977 33.25C64.606 34.3542 63.9602 36.1042 63.9602 38.5V49.125ZM88.8252 62.25V15.375L94.7627 12.5625H95.0752V59.4375L89.1377 62.25H88.8252ZM124.003 59.4375L118.065 62.25H117.753V58.9688C116.086 60.7396 113.846 61.625 111.034 61.625C107.138 61.625 104.107 60.4479 101.94 58.0938C99.7735 55.7396 98.6902 52.9583 98.6902 49.75C98.6902 46.4167 99.8673 43.5833 102.221 41.25C104.492 39 107.43 37.875 111.034 37.875C113.596 37.875 115.836 38.7604 117.753 40.5312C117.753 36.8438 117.107 34.4167 115.815 33.25C114.565 32.125 112.971 31.5625 111.034 31.5625H103.44V31.25L105.94 26H111.034C114.68 26 117.711 27.1771 120.128 29.5312C122.711 32.0521 124.003 35.0417 124.003 38.5V59.4375ZM104.815 49.75C104.815 51.6042 105.378 53.1354 106.503 54.3438C107.586 55.5104 109.107 56.0938 111.065 56.0938C113.107 56.0938 114.69 55.5 115.815 54.3125C117.065 52.9792 117.69 51.4792 117.69 49.8125C117.69 47.9375 117.044 46.4167 115.753 45.25C114.461 44.0833 112.909 43.5 111.096 43.5C109.201 43.5 107.68 44.1146 106.534 45.3438C105.388 46.5729 104.815 48.0417 104.815 49.75ZM129.649 19.7188C128.92 18.9688 128.555 18.0729 128.555 17.0312C128.555 15.9688 128.92 15.0625 129.649 14.3125C130.378 13.5625 131.264 13.1875 132.305 13.1875C133.347 13.1875 134.232 13.5625 134.961 14.3125C135.691 15.0625 136.055 15.9688 136.055 17.0312C136.055 18.0729 135.691 18.9688 134.961 19.7188C134.232 20.4688 133.347 20.8438 132.305 20.8438C131.264 20.8438 130.378 20.4688 129.649 19.7188ZM129.18 62.25V28.1875L135.118 25.375H135.43V59.4375L129.493 62.25H129.18ZM139.67 49.9688L145.608 47.1562H145.92V49.6562C145.92 51.9896 146.597 53.7604 147.951 54.9688C149.243 56.1146 150.806 56.6875 152.639 56.6875C154.764 56.6875 156.42 56.0104 157.608 54.6562C158.858 53.2396 159.483 51.6979 159.483 50.0312C159.483 48.2396 158.816 46.8229 157.483 45.7812C156.337 44.8854 154.712 44.4375 152.608 44.4375C148.899 44.4375 145.972 43.625 143.826 42C141.931 40.5833 140.983 38.3854 140.983 35.4062C140.983 32.5104 142.306 30.1146 144.951 28.2188C147.014 26.7396 149.576 26 152.639 26C155.576 26 158.129 26.9167 160.295 28.75C161.962 30.1875 162.993 31.8542 163.389 33.75L157.451 36.5625H157.139V35.6562C157.139 34.5729 156.826 33.6458 156.201 32.875C155.201 31.5833 153.774 30.9375 151.92 30.9375C150.441 30.9375 149.233 31.4062 148.295 32.3438C147.379 33.2604 146.92 34.2812 146.92 35.4062C146.92 36.7396 147.483 37.8021 148.608 38.5938C149.233 39.0312 150.566 39.25 152.608 39.25C156.837 39.25 160.014 40.2188 162.139 42.1562C164.451 44.2604 165.608 47 165.608 50.375C165.608 53.0833 164.41 55.6667 162.014 58.125C159.743 60.4583 156.618 61.625 152.639 61.625C149.035 61.625 146.004 60.625 143.545 58.625C140.962 56.5208 139.67 53.6354 139.67 49.9688ZM194.223 47.1562V49.125C194.223 52.5625 192.931 55.5521 190.348 58.0938C187.931 60.4479 184.9 61.625 181.254 61.625C177.65 61.625 174.619 60.4479 172.16 58.0938C169.577 55.5938 168.285 52.6042 168.285 49.125V38.5C168.285 35.0625 169.577 32.0729 172.16 29.5312C174.577 27.1771 177.608 26 181.254 26C184.796 26 187.827 27.1771 190.348 29.5312C192.931 31.9479 194.223 34.6354 194.223 37.5938V37.6562L175.16 52.5938C175.473 53.3021 175.91 53.8958 176.473 54.375C177.785 55.5 179.379 56.0625 181.254 56.0625C183.129 56.0625 184.712 55.5 186.004 54.375C187.316 53.25 187.973 51.7812 187.973 49.9688L193.91 47.1562H194.223ZM174.535 46.2812L187.598 35.6875C187.264 34.6667 186.744 33.8542 186.035 33.25C184.723 32.125 183.129 31.5625 181.254 31.5625C179.379 31.5625 177.785 32.125 176.473 33.25C175.181 34.3542 174.535 36.1042 174.535 38.5V46.2812Z" fill="white"/>
<path d="M36.9638 22.4308L37.6794 22.1923L37.7509 22.9431L37.9762 25.3088L37.9789 25.3371V25.3656C37.9789 25.3656 37.9789 25.3656 37.9789 25.3657C37.9789 25.3657 37.9789 25.3664 37.9789 25.3678L37.979 25.3742L37.9798 25.3969C37.9805 25.416 37.9816 25.4406 37.9831 25.4713C37.9852 25.513 37.9878 25.5623 37.9908 25.6203C37.9923 25.6489 37.9939 25.6795 37.9957 25.7125C38.006 25.9106 38.0194 26.1784 38.0313 26.5068C38.055 27.1637 38.0728 28.0616 38.0488 29.134C38.001 31.2771 37.7866 34.125 37.1175 37.1454C35.7823 43.1712 32.6063 49.9988 25.2042 53.16L25.2025 53.1608C22.5873 54.2676 19.7768 54.8392 16.9371 54.8416C14.1444 54.8788 11.3854 54.2643 8.87755 53.0518C8.40929 55.4474 8.09529 57.8708 7.93759 60.3072L7.88087 61.1834L7.08517 60.8122L2.89359 58.8567L2.54887 58.6959L2.54726 58.3155C2.53578 55.6175 3.37379 52.9752 3.84724 51.4823C3.97469 51.0805 4.07571 50.7619 4.12665 50.548C4.16183 50.4002 4.20021 50.203 4.24347 49.9806C4.25341 49.9295 4.26361 49.8771 4.27409 49.8237C4.30696 49.656 4.34281 49.4769 4.38066 49.3113C3.14993 47.528 2.27436 45.5233 1.80294 43.4067C1.31144 41.2 1.2693 38.917 1.67901 36.6937C2.08546 34.3657 3.06752 32.1763 4.53587 30.3246C6.00362 28.4737 7.91069 27.0189 10.0837 26.0926C14.1158 24.2844 18.5853 23.6822 22.9522 24.3588C26.9072 24.8966 30.9333 24.4942 34.7037 23.1842L34.7036 23.1842L34.7108 23.1818L36.9638 22.4308ZM18.0481 38.9814L18.0472 38.982C16.8496 39.6951 15.7485 40.5589 14.7707 41.5522C13.81 42.5393 12.9625 43.6308 12.2441 44.8061C10.8919 47.0186 10.6898 47.3323 10.5059 47.6562C10.4359 47.7796 10.3685 47.9044 10.2414 48.1359C13.3783 50.2651 18.7117 50.5397 23.2693 48.6015C27.6416 46.7417 30.0853 42.9184 31.4545 38.8428C32.6938 35.1541 33.0295 31.3231 33.1306 28.7207C29.6206 29.5032 25.9993 29.6697 22.4285 29.2107C22.2251 29.1948 22.0247 29.1785 21.8266 29.1624C20.8438 29.0824 19.9191 29.0072 18.9794 29.0072L18.9768 29.0072C16.5876 28.9968 14.2258 29.5162 12.0614 30.5279L12.0509 30.5328L12.0402 30.5373C10.5947 31.1461 9.328 32.113 8.35949 33.3467C7.39099 34.5805 6.75256 36.0405 6.50438 37.5893L6.50441 37.5893L6.50333 37.5956C6.19991 39.3675 6.28185 41.1782 6.73675 42.906C6.89241 42.6312 7.06117 42.3639 7.30545 41.9769C7.36322 41.8854 7.42522 41.7871 7.49228 41.6805L7.49223 41.6805L7.49657 41.6738C9.50073 38.5798 12.8127 36.6541 15.9751 35.111L15.9751 35.1109L15.9828 35.1073C19.1532 33.6162 22.6332 32.9016 26.1346 33.0229L26.7139 33.0429V33.6225V35.5V36.0203L26.1988 36.094C23.3172 36.506 20.5465 37.4875 18.0481 38.9814Z" fill="white" stroke="white" stroke-width="1.2"/>
</svg>
